<svg xmlns="http://www.w3.org/2000/svg" viewBox="0 0 99.45 42"><defs><style>.cls-1{fill:#c1a192}</style></defs><g id="Layer_2" data-name="Layer 2"><g id="Layer_1-2" data-name="Layer 1"><path class="cls-1" d="M31 20.4q.7-1.3 1-1.95a3.34 3.34 0 0 0 .25-.6l.15-.25a9.07 9.07 0 0 0 .5-.9q1.3-2.3 1.9-3.5l.6-1.2q.35-.8.85-1.75l1.35-2.6.8-1.45.3-.75a.29.29 0 0 0 0-.2 1 1 0 0 0 .3-.35v-.2c.07 0 .1-.07.1-.1a.14.14 0 0 1 0-.1.8.8 0 0 1 .1-.35V4a.12.12 0 0 1 0-.2v-.2c-.07-.07-.1-.12-.1-.15a.42.42 0 0 0 0-.23 1.33 1.33 0 0 1-.1-.17l-.3-.4a.74.74 0 0 1-.2-.15 1.2 1.2 0 0 0-.3-.2l-.2-.15c-.07-.07-.12-.1-.15-.1l-.8-.3a1.69 1.69 0 0 1-.4-.25s-.08 0-.15-.1l-.2-.1-.2-.05h-.35a.2.2 0 0 1-.15-.05 2.75 2.75 0 0 0-.6-.1 1.49 1.49 0 0 0-.75.2 3.32 3.32 0 0 0-.8.75 4.39 4.39 0 0 0-.6 1l-.6.95a4.17 4.17 0 0 0-.17.4 2.79 2.79 0 0 1-.23.45l-.45.8q-.05.15-.4.85l-.2.45a1.92 1.92 0 0 0-.2.45l-.3.6-.3.6-.35.65-.35.7-.35.7-.2.35a3.36 3.36 0 0 0-.25.6l-.3.65a2 2 0 0 0-.2.35 1.17 1.17 0 0 1-.2.3.88.88 0 0 1-.1.25l-.25.35v.05a2.2 2.2 0 0 1-.25.45l-.3.65-.3.65-.15.25-.3.65-.15.15a.17.17 0 0 0-.05.13.17.17 0 0 1 0 .13v.15H26s-.05 0-.05.1a.45.45 0 0 1-.4.25.85.85 0 0 1-.35.05H25q-1.15 0-1.75-.05a5.46 5.46 0 0 1-.85 0h-.5l-.75-.1H19l-1.2.15h-.5V17l.2-.4a.86.86 0 0 1 .1-.25l.55-.9 1.75-3.35 1.5-3 1.35-2.6a11.55 11.55 0 0 0 .65-1.3 2.17 2.17 0 0 0 .27-.52l.18-.48a.29.29 0 0 0 0-.2.54.54 0 0 0 .2-.25l.1-.25a.29.29 0 0 1 .1-.2l.05-.35a.25.25 0 0 0 0-.3V2.5a.2.2 0 0 0 0-.15 1.78 1.78 0 0 0-.65-1A3 3 0 0 0 23.3 1l-.1-.1c-.07-.07-.12-.1-.15-.1a1.37 1.37 0 0 1-.42-.2 1.89 1.89 0 0 0-.33-.15.2.2 0 0 1-.15-.05.2.2 0 0 1-.15 0h-.2V.35a1.66 1.66 0 0 0-.5-.1 1.63 1.63 0 0 1-.5-.1L20.45 0h-.9l-.4.05h-.55l-.15.15-.55.8-.45.65-.2.45L15.8 5a1.18 1.18 0 0 0-.25.55l-.1.2v.05a.75.75 0 0 0-.25.4.08.08 0 0 0 0 .1.22.22 0 0 1 0 .1.29.29 0 0 0-.1.2L15 7l-.15.25v.1l-.5 1-.05.2v.15l-.35.6q-1 1.9-1.35 2.45-.6 1.1-1.25 2.6L8 21.05l-1.65 3.4q-1 1.9-1.45 2.9L3 31q-.9 1.85-2.7 5.65a2.63 2.63 0 0 0-.3.85v.7a4 4 0 0 0 2.65 2 6 6 0 0 0 .85.1 2.81 2.81 0 0 0 1.3-.5 4.38 4.38 0 0 0 1-1l.6-1.15 1.5-2.85q.15-.35.35-.75t.45-1a.9.9 0 0 0 .15-.45c0-.1 0-.15.1-.15l.1-.1.15-.35a.2.2 0 0 0 .1-.2l.1-.1h-.05a.34.34 0 0 0 .2-.45c.1 0 .18-.15.25-.35l.1-.2v-.3l.1-.2a.29.29 0 0 0 .2-.2.1.1 0 0 1 0-.08.1.1 0 0 0 0-.07.29.29 0 0 0 .15-.25s.05 0 .05-.1l2-3.4a8.91 8.91 0 0 1 .5-.9l.75-1.4.1-.15a.52.52 0 0 0 .5.05 3.4 3.4 0 0 0 .65-.05l.7-.1.6-.15a4.81 4.81 0 0 0 .95-.2q.45-.1 1.15-.2a3 3 0 0 1 .7 0h1a.86.86 0 0 1 .35.05 3.36 3.36 0 0 1 .7 0h.9l.75.1.55.05a.2.2 0 0 1 0 .15l-.1.1-.45 1.25a1.08 1.08 0 0 0-.2.4q-.05.2-.6 1.4a9.21 9.21 0 0 0-.4 1l-.3.65-.1.2-.1.2a.41.41 0 0 1 0 .13.5.5 0 0 1-.12.18v.1s-.08.08-.15.25a.17.17 0 0 0 0 .13.17.17 0 0 1-.05.13l-.15.25a2.24 2.24 0 0 1-.25.45 3.31 3.31 0 0 0-.25.6l-.15.15a.88.88 0 0 1-.1.25s0 .08-.1.15a.29.29 0 0 1-.1.2l-.05.1v.05a.33.33 0 0 1-.08.2 1.33 1.33 0 0 0-.12.2l-.3.5-.35.75-.2.3-.3.6-.15.25-.12.25a.59.59 0 0 0-.08.25.14.14 0 0 0 0 .1h-.05v.05l-.2.45v.1a.2.2 0 0 0 0 .15l-.15.25a.34.34 0 0 0-.1.25h-.43a1.75 1.75 0 0 1-.25.5l-.15.45c0 .07 0 .1-.05.1a.32.32 0 0 1 0 .18l-.1.13a2.82 2.82 0 0 1-.25.65l-.15.4-.2.65a.34.34 0 0 0-.1.25l.05.05v.15l-.05.25a.73.73 0 0 0 .15.45c0 .1.07.18.2.25a9 9 0 0 0 .9.55l.55.2h.2A.81.81 0 0 0 18 42h.5a1.28 1.28 0 0 1 .4 0 1.94 1.94 0 0 0 .85-.55l.35-.55.2-.2a7.13 7.13 0 0 0 .7-1q1-1.9 1.45-2.85l.8-1.65.4-.8a2.12 2.12 0 0 0 .1-.35c0-.1 0-.15.1-.15l.1-.05a.55.55 0 0 1 .05-.35v-.15a.09.09 0 0 1 .1-.1c.07-.07.1-.12.1-.15v-.2a.88.88 0 0 0 .1-.25.16.16 0 0 0 .05-.2v-.1c.1-.07.15-.13.15-.2l.15-.3v-.15l.15-.2.15-.25a.2.2 0 0 1 .05-.15.41.41 0 0 0 .15-.25l.1-.2 1.9-3.2q.7-1.25 2-3.75zm3.25-6.75h.05s0 .08-.1.15zm-.85-10.8a3.12 3.12 0 0 1 .6-.8v.1l-.35.5-.15.25s0 .05-.1.05zm-.3 12.7a5.89 5.89 0 0 0 .4-.75l.05-.05v.1a3 3 0 0 0-.35.65l-.1.1zm-9.2-12.9l.1.25q-.15-.2-.1-.25zm-5.6 11.6l.45-.8v-.05.1l-.35.7a.09.09 0 0 1-.1.1zM.6 38a1.78 1.78 0 0 0 .25.4c-.1-.03-.18-.17-.25-.4zm10.95-11.27zm.25 0v.05l.1-.1zM12.9 25q-.2.45-.7 1.35h-.1v-.1l.4-.65.05-.1.35-.6c.1.1.03.1 0 .1zm.15-.45a1.26 1.26 0 0 1-.12.2 1.37 1.37 0 0 0-.12.2l-.4.75a4.05 4.05 0 0 1-.35.6v.15l-.1.1v-.15l.25-.45.3-.55a.13.13 0 0 0 0-.2l.1-.15a.2.2 0 0 1 0 .15 1.18 1.18 0 0 0 .25-.4.76.76 0 0 1 .1-.3v.15a.33.33 0 0 0 .15-.15.58.58 0 0 1 .1-.15zm.1 0v-.1h.05zm.4-1.3l-.1.2-.1.2c-.07 0-.13.07-.2.2a.48.48 0 0 1-.15.35l-.05-.1-.1.05q.25-.4.65-1.2a.16.16 0 0 1 .05.35zm9-.5a1.4 1.4 0 0 1 .6.1zm1.75 10zm2.1-4.8V28zm.25 0h-.05l.1-.1zm1-1.45l-.55 1a.09.09 0 0 1-.1.1v-.05a1.06 1.06 0 0 1 .2-.35 8.74 8.74 0 0 1 .5-.9v-.1zm0-.35l-.05.15-.6 1.1c-.07.07-.1.12-.1.15l-.1.15a.1.1 0 0 0 0-.07 5.89 5.89 0 0 0 .4-.75l.15-.2v-.08q0-.1.1-.25a.2.2 0 0 1 0 .15c.1 0 .18-.12.25-.35h-.05a.41.41 0 0 1 .15-.25.29.29 0 0 0-.05.2l-.05-.1.1-.2.05-.1v.2l-.1.2zm.4-.45l-.05.15zm.35-1.17l-.2.47c-.07.07-.12.1-.15.1s0 .08-.1.15l.1.05a.48.48 0 0 1-.15.35l-.05-.1a2.41 2.41 0 0 1 .3-.6l.4-.65zM28.85 12q-.3.5-.8 1.5l-.5 1-.17.24a2 2 0 0 1 .12-.29 6 6 0 0 1 .4-.75l.1-.3.2-.3V13a1.36 1.36 0 0 1 .13-.27 1.4 1.4 0 0 0 .13-.27l.25-.5.1-.2v.1zm.8-1.75l.15-.25-.2.4a.2.2 0 0 1 .05-.2zm-.15.35l-.15.25c0 .08 0 .12-.07.13a.28.28 0 0 1 .07-.13.23.23 0 0 1 .15-.3zM42 23.95l.05-.05H42v.05zm-4.1 7.35z"/><path class="cls-1" d="M46 28a1.22 1.22 0 0 0 .15-.35 1.93 1.93 0 0 0 .2-.35.85.85 0 0 1 .1-.25l.15-.3c.07-.2.15-.42.25-.65l.15-.35.15-.35a2.12 2.12 0 0 1 .1-.35.29.29 0 0 0 .05-.2.34.34 0 0 0 .1-.25.76.76 0 0 0 .1-.3l.1-.3v-.1a.08.08 0 0 0 0-.1.08.08 0 0 1 0-.1v-.2l.05-.2v-.05a.41.41 0 0 0 0-.25l.1-.45v-.25h.05v-.7l.2-1.15a4.07 4.07 0 0 0 .05-1 6 6 0 0 0-.1-.9 3 3 0 0 1-.25-.85 2.92 2.92 0 0 0-.7-1.05 4.61 4.61 0 0 0-2.35-1.25.55.55 0 0 1-.25 0h-.9l-.45.1q-.45.05-1.7.25a1.54 1.54 0 0 0-.45 0h-.25a1.31 1.31 0 0 0-.35.13L40 16l-.42.1-1.58.6-.9.4c-.1 0-.15 0-.15.1l-.1.15a8.4 8.4 0 0 0-.8.5l-1 .75s-.08 0-.15.1a3.78 3.78 0 0 0-.65.55l-.85.9a13.69 13.69 0 0 0-1.7 2.1q-.8 1.2-1.15 1.85-.6 1.3-.85 2a13.59 13.59 0 0 0-.55 1.45l-.1.2a.23.23 0 0 0 .05.25v.1a.87.87 0 0 0 0 .35l-.05.35v.35a1.78 1.78 0 0 0 0 .5v.2c0 .1-.07 0 0 .1l-.05.1v.25h.05l-.05.05h.05H29v.2h.05l-.05.05h.05l-.05.1v.4a.69.69 0 0 1 .05.3.29.29 0 0 0 0 .2v.25a.14.14 0 0 1 0 .1h.05v.4a.2.2 0 0 1 0 .15l.05.1v.6a.85.85 0 0 0 .05.35l.25.65v.05l.15.4.15.2V35l.2.2c0 .13 0 .2.15.2h-.05l.1.13a.17.17 0 0 0 .15.08v.05s.08 0 .15.1l.05.05a.16.16 0 0 0 .15.1h-.05a4.58 4.58 0 0 0 1 .7q.7.35.85.4a1 1 0 0 1 .3.07 1 1 0 0 0 .35.08h.05q0 .1.15.15h.3a2.78 2.78 0 0 1 .65.1l.45.1a.7.7 0 0 1 .3 0h.55a.29.29 0 0 0 .2 0 .87.87 0 0 0 .35 0 .29.29 0 0 1 .2 0l.25-.05h.1l.35-.1.65-.15.7-.2.7-.35.2-.1a.2.2 0 0 1 .15 0l.15-.1c.07-.07.12-.1.15-.1a2 2 0 0 1 .35-.2l.15-.1.1-.1a.09.09 0 0 0 .1-.1h.05l.4-.3.15-.15h.05a.21.21 0 0 0 .15 0 .29.29 0 0 1 .1-.2l.15-.2.1-.1.2-.2.15-.2a1.47 1.47 0 0 0 .25-.3l.1-.1c.07-.07.1-.12.1-.15l.15-.15a1.2 1.2 0 0 0 .2-.3l.15-.2a.29.29 0 0 0 .1-.2l.1-.05.1-.12a.31.31 0 0 0 .05-.17c.07-.07.1-.12.1-.15l.1-.15c.2-.3.32-.47.35-.5l.25-.5a.91.91 0 0 0 .1-.25v-.05l.1-.2.1-.15v-.1l.15-.25v.03a.1.1 0 0 1 0-.07.11.11 0 0 0 0-.08l.3-.7a2 2 0 0 0 .2-.45l.1-.15.3-.7.15-.3zm1.8-6a1 1 0 0 1-.05.4 1.3 1.3 0 0 1 .05-.4zm-9.85 9.45h-.05.05zm2.7 4.55a1.26 1.26 0 0 0-.15.1 1.16 1.16 0 0 0-.15.1.76.76 0 0 1-.2.15l-.25.15.18-.1.13-.1.3-.15h.05v-.05h.05l.05-.1zm-.5-8h.05zm.6 7.9zm1.45-2.2h-.05l.05-.05zm.6-12.65v.2a.86.86 0 0 0-.05.35.41.41 0 0 0-.1.3.25.25 0 0 0-.05.25v.2h-.1v.25a.28.28 0 0 0-.05.2l-.05.05h.05-.05a.2.2 0 0 1 0 .15l-.05.1v.15h.1l-.08.08a.1.1 0 0 1-.07 0l.05.05h-.05.05-.1v.05a.29.29 0 0 0 0 .2v.05H42l.1.1H42l-.1.2h.05v.15l-.05-.05a.21.21 0 0 1 0 .15h-.1.15l-.2.1v.1h-.1l.1.1c0-.07-.08-.07-.15 0l.05.05h-.05v.05h-.05.05v.05h-.05v.1h-.05l.05.05c-.1.07-.13.12-.1.15s0 .1-.05.1a.21.21 0 0 1 0 .15l-.05.05a.21.21 0 0 1 0 .1.4.4 0 0 1-.07.1l-.05.1v.1c-.07 0-.08 0 0 .05l-.1.2v.15h-.05v.05l-.05.1h-.05l-.1.1v.1l-.15.2v.15l-.1.1-.1.2v.1a1 1 0 0 0-.2.35v.1h-.05l-.15.25v.15-.05.05c0 .05 0 0 0 0h.05-.68a.09.09 0 0 0-.1.1.16.16 0 0 0-.05.2h-.1v.2h-.1v-.05a.14.14 0 0 1 0 .1.06.06 0 0 0 0 .1H39c0 .07 0 .1.05.1L39 30h-.1v.1h-.1.05-.05s0 .08-.15.15v.1h.05-.1s-.05 0-.05.1l-.1.1h-.05v.1h-.1v.15l-.15.15h.1-.1a.2.2 0 0 0 0 .15v.1l-.1.1-.1.15a.18.18 0 0 0-.15.15c-.07.07-.1.12-.1.15a.14.14 0 0 0 0 .1.09.09 0 0 0-.1.1l-.1.05a.55.55 0 0 1-.2.25 2.86 2.86 0 0 1-.5.55.06.06 0 0 0 0 .1l-.7.45a5.89 5.89 0 0 0-.75.4l-.15-.45a12.94 12.94 0 0 1-.3-1.65v-.6a8.4 8.4 0 0 1 .2-1.15 11.87 11.87 0 0 1 1-3 20 20 0 0 1 3.15-4.65 14.08 14.08 0 0 1 2.35-2 6.55 6.55 0 0 1 1.45-.75l.05-.05v.8a4.17 4.17 0 0 1-.3.8zm.1 11.25v-.05l.05.05zm1.47-1.08s-.01.02 0 .01zm.38-1.22h.05zm.15-.2h-.05v-.05h.05z"/><path class="cls-1" d="M39.5 29.15v-.05h-.05l.05.05zm59.9-.35a.81.81 0 0 0-.1-.35.47.47 0 0 0-.3-.25.82.82 0 0 0-.6.2 2.18 2.18 0 0 0-.5.4q-1.25 1.1-2.8 2.25l-1.15.9-.75.45-1.25.65-.65.2a15.54 15.54 0 0 1-2 .55h-1.15l-.05-.05-.15-.2-.15-.35a8 8 0 0 1-.1-1.05v-.8a1.64 1.64 0 0 1 .1-.4v-.25a12.65 12.65 0 0 1 .75-2l.3-.6.3.3a.29.29 0 0 0 .2.1l.65.5a3.63 3.63 0 0 0 .7.4l.3.15.45.1a.55.55 0 0 0 .25.05h.3a.69.69 0 0 0 .3 0h.35l.35-.05h.8c.2-.07.42-.15.65-.25l.3-.15.2-.1a.2.2 0 0 1 .15-.15v-.05h.2v-.05a.29.29 0 0 0 .2-.1c.07-.07.12-.1.15-.1v-.2h.1v-.05l.35-.3.15-.15.2-.25.15-.15v-.1l.1-.1a.2.2 0 0 0 0-.15l.1-.05v-.25h.05a.09.09 0 0 1 .1-.1v-.1l.2-.3.25-.45c.07-.07.1-.12.1-.15h.05l.15-.25v-.05l.1-.15v-.1l.15-.25.1-.2v-.25a.29.29 0 0 0 .1-.2l.2-.55.1-.35V23l.05-.1v-1.7l.5-.5-.25-.65a5.78 5.78 0 0 0-.75-1.4l-.5-.65-.65-.5a.29.29 0 0 0-.2-.1h-.1a5.52 5.52 0 0 0-1-.55l-.4-.1-.5-.1-.75-.15a1.51 1.51 0 0 1-.45 0h-.9a5.39 5.39 0 0 0-1.4.35 6 6 0 0 0-1 .4 1.18 1.18 0 0 1-.3.23l-.3.17a6.81 6.81 0 0 0-1.15.85l-1 1A10.48 10.48 0 0 0 86 21a1.25 1.25 0 0 1-.23.33l-.22.23-.55.64s0 .08-.1.15l-.15.25a2.25 2.25 0 0 0-.2.3v.15h-.1v.1l-.05.05a.08.08 0 0 1 0 .07.08.08 0 0 0 0 .08v.15a.87.87 0 0 0-.25.4h-.05a.14.14 0 0 1 0 .1s0 .08-.1.15v.05c-.07 0-.1 0-.1.15l-.1.15v.05l-.1.1a.14.14 0 0 0 0 .1.15.15 0 0 1-.05.1.76.76 0 0 1-.1.3l-.54 1.29h-.06l-.4.2a2.86 2.86 0 0 0-.5.55 8 8 0 0 1-1 1.2 8.43 8.43 0 0 1-.85 1l-1.3 1.2a6.76 6.76 0 0 1-1.15.85l-.4.3a3.38 3.38 0 0 1-.47.32 3.5 3.5 0 0 0-.47.33h-.1v-.3A16.33 16.33 0 0 1 77.2 29a20.58 20.58 0 0 1 1.7-2.8l1.6-2.5 1.2-1.9a1.18 1.18 0 0 0 .2-.3 2.44 2.44 0 0 1 .45-.55l.35-.45a1.08 1.08 0 0 0 .2-.6.29.29 0 0 0-.05-.2v-.3a2 2 0 0 0-.65-.65l-1-.45a12.09 12.09 0 0 0-1.2-.4 8.47 8.47 0 0 0-1.5-.2 4.72 4.72 0 0 0-1.15.15l-.5.15a1 1 0 0 0-.5.3c-.07.07-.12.1-.15.1l-.3.35-.1.05a24.12 24.12 0 0 0-1.95 1.6l-.85.75-1.25 1.3-1.15 1.25-.5.45q-.85.9-2.1 2l-.7.55a.2.2 0 0 1 0-.15q.35-.7 1.25-2.1l2.1-3.25 1.2-1.85.15-.3.3-.45a.94.94 0 0 0 .1-.5 1.34 1.34 0 0 0 0-.4 2 2 0 0 0-.55-.6 1.69 1.69 0 0 0-.65-.3l-1.35-.25a6.31 6.31 0 0 0-1-.1h-.4a8.16 8.16 0 0 0-1 .1h-.25l-.85.45h-.1v.1a.29.29 0 0 0-.3.1l-.1.1c-.23.33-.37.52-.4.55l-.2.2-.4.45-.25.25-.1.05-.1.15-.15.15-.3.3-.35.45-.7.65-.85.8-1.2 1.2-.6.6-1.2 1.25-.85.85-1.25 1.3-.5.5-1.7 1.85-.35.35-.3.2 2.15-3.4q.6-1 .7-1.15l1.2-1.8 1.2-1.65.15-.15a8.37 8.37 0 0 0 1-.85l.2-.2c.07-.1.13-.13.2-.1l.25-.45a2.36 2.36 0 0 0 .3-1 .78.78 0 0 0-.3-.7l-.75-.6a5.87 5.87 0 0 0-1.4-.6l-.85-.35a5.22 5.22 0 0 0-1.65-.4.87.87 0 0 0-.35 0H55a2 2 0 0 0-.85.5h-.05a.29.29 0 0 1-.1.2l-.3.4-.9 1.35-.6 1-.85 1.35-1.15 2-.65 1.2-.45.9-.35.55a1.56 1.56 0 0 1-.15.35l-.6 1.3-.85 2c-.07.17-.12.32-.18.47s-.11.31-.17.48l-.15.4s-.05 0-.05.1a.17.17 0 0 0 0 .2l-.15.65-.15.5v.1a.29.29 0 0 0 0 .2v.25a1 1 0 0 0-.05.4v.6h.1v.15q.15 0 0 .2v.1a.2.2 0 0 1 0 .15v.3a.29.29 0 0 0 0 .2v.1a1.11 1.11 0 0 0 .05.35c.1.3.17.48.2.55l.15.3v.1c0 .1.07.13.2.2v.05a.09.09 0 0 0 .1.1l.25.25v-.05c.07.13.13.2.2.2l.1.05.2.1v.05h.1a.21.21 0 0 0 .15.05.34.34 0 0 0 .25.1.44.44 0 0 0 .22.13.89.89 0 0 1 .23.08h.8v.05h.1l.1-.1v.1H50l.3-.1a1.54 1.54 0 0 0 .45 0l.15-.05a.2.2 0 0 0 .15 0 .81.81 0 0 0 .35-.1.2.2 0 0 1 .15 0l.15-.15v.05l.2-.1a.11.11 0 0 0 .08 0 .1.1 0 0 0 0-.08h.15l.15-.05.2-.15v-.05l.3-.2.2-.2.45-.5a17 17 0 0 0 1.25-1.4 21.68 21.68 0 0 0 1.82-1.73l1.25-1.4 1.1-1.2.75-.9 1.65-1.8.8-.85v.1q-.9 1.85-2 4.4l-1 2.7a4.14 4.14 0 0 0-.17.55 2.89 2.89 0 0 1-.23.6 2.11 2.11 0 0 0 0 .5 1.29 1.29 0 0 0 .25.85 3.84 3.84 0 0 0 .9.9 4.69 4.69 0 0 0 1.55.65 2.4 2.4 0 0 0 .55 0 1.73 1.73 0 0 0 .7-.1l.2-.1a1.21 1.21 0 0 0 .3-.2.75.75 0 0 1 .2-.15l.6-.5.45-.5.8-1 .55-.8q1.7-2.6 3.3-4.75 1.3-1.7 2-2.5v.15l-.6 2a14.31 14.31 0 0 0-.45 2 8.47 8.47 0 0 0 0 1.1 7.09 7.09 0 0 0 .3 2 6.2 6.2 0 0 0 1.1 1.8l.1.1.15.2a4.24 4.24 0 0 0 .9.65 4.43 4.43 0 0 0 1.1.35 3 3 0 0 0 .65 0 4.25 4.25 0 0 0 .75-.1l.47-.12a2.42 2.42 0 0 0 .53-.17 11.26 11.26 0 0 0 1-.5 2.16 2.16 0 0 0 .45-.25l.1-.1.3-.17a1 1 0 0 0 .3-.27l.25-.25a.3.3 0 0 0 .2-.2l.2-.3a1.18 1.18 0 0 0 .2-.3 7.25 7.25 0 0 0 .5-.75l.6-.8a3.48 3.48 0 0 0 .33-.48q.12-.22.23-.37l.6-1 .7-1.21v1.06a5.47 5.47 0 0 0 .65 2.2 8.08 8.08 0 0 0 2 2.5 16 16 0 0 0 1.45 1 3.11 3.11 0 0 0 .6.2l.3.15a4.21 4.21 0 0 1 .7.1 5.56 5.56 0 0 0 .85.05h.25a7.27 7.27 0 0 0 2.3-.4 11.56 11.56 0 0 0 2.4-1.2 16 16 0 0 0 2-1.6 24.45 24.45 0 0 0 3-3.6l.6-.9.2-.25a4 4 0 0 0 .2-.5l-.06-.02zm-9.25-2.3l.3-.45a6.86 6.86 0 0 1 1.2-1.5l.75-.8a3.65 3.65 0 0 1 .9-.8l.35-.3h.1l.85-.3.4-.1v.3a3.89 3.89 0 0 1-.45 1.85l-.6 1-.3.45a.09.09 0 0 1-.1.1l-.4.3-.8.45-1 .3H91a1 1 0 0 1-.8-.3.23.23 0 0 1-.05-.2zM51.5 37.1l.2-.1zm6.33-11h-.08c-.08 0 0-.05.1-.05a.1.1 0 0 1-.03.03zm.33-.37l-.26.27v-.1h.1c.07 0 .1 0 .1-.05h.05c.07-.07.1-.08.1-.05zm.13-.12h.1zm.22-.23l-.01-.03zm.1-.1zm18.88 11h-.07.1s-.03-.04-.05-.05zm.31-.28a.09.09 0 0 1-.1.1V36h.1v-.05h.05zm1.1-5.1zm.35-.2zm0 0z"/></g></g></svg>