<svg xmlns="http://www.w3.org/2000/svg" viewBox="0 0 140.05 41.6"><defs><style>.cls-1{fill:#c1a192}</style></defs><g id="Layer_2" data-name="Layer 2"><g id="Layer_1-2" data-name="Layer 1"><path class="cls-1" d="M2.23 19.7zM26.8 18a25.52 25.52 0 0 0 2-3 13.12 13.12 0 0 0 .8-1.4q.5-.95.85-1.75l.15-.3a.2.2 0 0 0 0-.15l.15-.28.2-.37a7.34 7.34 0 0 0 .6-2l.1-.6a2.08 2.08 0 0 1 0-.5.1.1 0 0 0 0-.08V6.49l-.1-.7-.1-.45a3.36 3.36 0 0 0-.2-.8l-.05-.1v-.1a.29.29 0 0 0-.1-.2.43.43 0 0 0-.1-.44 1.51 1.51 0 0 0-.15-.2v-.15a.55.55 0 0 1-.1-.15.59.59 0 0 0-.15-.2s0-.08-.1-.15a.15.15 0 0 0-.05-.1l-.15-.2-.3-.35-.1-.2s0-.08-.1-.15-.05 0-.05 0v-.1a.08.08 0 0 1-.08 0h-.12c-.06 0 0-.08 0-.05l-.1-.1a.37.37 0 0 1-.15-.12.38.38 0 0 0-.3-.23l-.2-.1-.25-.15-.15-.1-.2-.1a1.58 1.58 0 0 0-.35-.15l-.15-.1h-.1a.06.06 0 0 0-.1 0h-.2a.34.34 0 0 0-.3-.2h-.05l-.35-.1a.7.7 0 0 0-.3 0 2.8 2.8 0 0 0-.6-.15h-.75a.88.88 0 0 0-.35 0 .62.62 0 0 1-.3 0L24 0h-.6a1.55 1.55 0 0 0-.4.1h-.2l-.4.05-.4.1-1 .15q-1.55.35-2.05.5a12.3 12.3 0 0 0-2.2.8A3.34 3.34 0 0 0 16 2a.88.88 0 0 1-.25.1h-.1v.1l-.35.15a.2.2 0 0 1-.15 0 .54.54 0 0 0-.25.2h.05s-.08 0-.15.1c-.1.07-.13.12-.1.15l-.15.15-.25.2-.1.1h-.3a.87.87 0 0 0-.25.1.89.89 0 0 0-.25.1 9.09 9.09 0 0 0-1 .7l-.15.15-.35.3-.55.45-.2.2-.2.15-.25.25c0 .07-.05.1-.15.1s0 .08-.1.15h-.05a.29.29 0 0 1-.1.2l-.2.15-.1.2-.1.1-.3.45a.09.09 0 0 1-.1.1c-.07.07-.1.12-.1.15h-.1v.05a14.47 14.47 0 0 0-.1.1l-.1.1c0 .07-.05.13-.15.2a14.47 14.47 0 0 0-.1.1l-.05.05-.15.25c0 .07 0 .1-.05.1v.1a.09.09 0 0 1-.1.1s0 .08-.1.15V9H8a1.39 1.39 0 0 0-.15.2l-.15.2-.05.1s-.08 0-.15.1 0 .06 0 .07h-.05a1.52 1.52 0 0 1-.15.2v.15h-.05a.41.41 0 0 0-.15.25.09.09 0 0 0-.1.1l-.15.25-.25.38c0 .07 0 .08 0 0l-.05.05v.1l-.05.15-.1.13-.1.17-.15.15H6a1.19 1.19 0 0 1-.2.3.77.77 0 0 0-.15.2l-.05.15-.15.3-.15.3v.1l-.1.2-.05.05a1.18 1.18 0 0 1-.2.3v.1l-.1.1V14l-.1.15a.2.2 0 0 1-.05.15v.1c-.07 0-.1 0-.1.15v.1l-.1.2a.29.29 0 0 1-.1.2l-.1.15v.05l-.05.15-.1.25v.1l-.1.2v.1a.88.88 0 0 1-.1.25.34.34 0 0 0-.1.25h-.5V17l-.05.1h.05l-.05.1-.1.2v.05l-.15.3c-.07.17-.13.35-.2.55s0 0 0 .07v.05a.45.45 0 0 1 0 .2.44.44 0 0 0-.05.2l-.1.2a.21.21 0 0 1 0 .15v.1l-.07.2-.07.2-.2.45v.1a.81.81 0 0 1-.1.35l-.1.2v.1l-.05.15v.15a.17.17 0 0 0-.05.13.17.17 0 0 1 0 .13h-.05v-.15l-.1.1h-.15v.05H1a.09.09 0 0 0-.1.1v.15c.07 0 .07.08 0 .15L.85 23a8.64 8.64 0 0 0-.2 1 .2.2 0 0 1-.05.15v.55a1.58 1.58 0 0 1-.1.45l-.05.25a1.54 1.54 0 0 0 0 .45 1.28 1.28 0 0 1-.05.4.29.29 0 0 1 0 .2v.25l-.05.4v.3a2.76 2.76 0 0 1-.1.65 1.54 1.54 0 0 0 0 .45 2.35 2.35 0 0 1 0 .55v.4l.1.15v.4l.1.85a4.24 4.24 0 0 1 .1.8.88.88 0 0 1-.17.35.93.93 0 0 0 .07.25h.1l-.05.05a.09.09 0 0 0-.1.1h.05v.1s.07.1 0 .1a.89.89 0 0 1 .08.25.92.92 0 0 0 .07.25 11.55 11.55 0 0 0 .4 1.7l.15.35a1 1 0 0 1 .2.45l.15.4.25.35.1.13a.32.32 0 0 1 0 .18l.25.5c.07.07.1.12.1.15v.1l.5.59.2.25a1.14 1.14 0 0 1 .4.4 1.8 1.8 0 0 0 .3.35l.15.15a16.49 16.49 0 0 0 1.6 1.2 1 1 0 0 0 .35.25h.05v.2h.05v.08A.1.1 0 0 0 6 41h.4l.45.15a8 8 0 0 0 1.35.25 1.55 1.55 0 0 0 .45 0 .75.75 0 0 1 .45 0h.3a1.52 1.52 0 0 0 .45 0 .56.56 0 0 1 .25 0h.5a.7.7 0 0 1 .3 0h.6a1.11 1.11 0 0 1 .5-.1h.1a.08.08 0 0 1 .1 0 .89.89 0 0 0 .4-.1c.07 0 .1 0 .1-.05a11.82 11.82 0 0 0 1.6-.45l.3-.1a2.38 2.38 0 0 0 .65-.35h.18a.1.1 0 0 0 .07 0h.05a1.19 1.19 0 0 1 .35-.15 5.36 5.36 0 0 0 1.45-.7l.2-.15.1-.1a17 17 0 0 0 1.5-1.15 14.93 14.93 0 0 0 2.3-3 6 6 0 0 0 .9-2.9 2.11 2.11 0 0 0-.2-1 .55.55 0 0 0-.55-.35h-.2a8.49 8.49 0 0 0-1 .5 7 7 0 0 0-.62.4q-.28.2-.52.35a2.84 2.84 0 0 1-.55.5 15.29 15.29 0 0 1-2.2 1.4 15.14 15.14 0 0 1-3.35 1.3l-.85.15a11.17 11.17 0 0 1-1.1.2l-.9.1a8.1 8.1 0 0 1-1 0 3.91 3.91 0 0 1-1.45-.3.32.32 0 0 1-.2-.15 1.72 1.72 0 0 1-.55-.65 2.87 2.87 0 0 1-.25-1.1 1.3 1.3 0 0 1 .05-.4L6.85 33A32.67 32.67 0 0 1 8 25a35.49 35.49 0 0 1 6.7-12.6A29.13 29.13 0 0 1 19.2 8a9.09 9.09 0 0 1 5-2.15h.05a4.22 4.22 0 0 1 .7-.1 1.52 1.52 0 0 1 .45 0h.2l.3.3a.21.21 0 0 1 .1.25v.3a.55.55 0 0 0 .05.25V7l-.05.4v.25a.29.29 0 0 0-.05.2q-.15.4-.55 1.2l-.4.8-.1.15a.3.3 0 0 0-.2.2 5.82 5.82 0 0 1-.6.8l-.75 1-.65.85a3.17 3.17 0 0 0-.4.55l-.3.4a5.8 5.8 0 0 1-.5.6l-.8.8-.6.7-.35.4-.25.2-.1.1a2.21 2.21 0 0 0-.65.8 2.84 2.84 0 0 0-.45 1v.18a.1.1 0 0 0 0 .08.25.25 0 0 0 0 .25v.1a.05.05 0 0 0 0 .1l.15.15a7.48 7.48 0 0 0 1.75 1.44l.2.15.85.25a1.48 1.48 0 0 0 .45.05 3.3 3.3 0 0 0 2.1-.5 4.34 4.34 0 0 0 1.1-.75 11.54 11.54 0 0 0 1.9-1.9zm3.6-13.9h-.05.05v.1zm.8.9h.05zm-.2-.7zm-.1-.3zm-.3-.35h.05l-.05.05s-.02-.08 0-.1zM30.2 3h.1v.1h-.1zm0-.2h-.1.05zm-.35-.15l.2.2.15.2.05.05v.15h.2v.15h.25V4a.09.09 0 0 1 .1.1c.07 0 .07.08 0 .15v.1h.05v.1c0 .07 0 .1.05.1h.1s.07 0 .1.1H31v.05a.06.06 0 0 1 0 .1l-.15-.2v-.2l-.05.05a.2.2 0 0 1 0-.15l-.05-.1c-.07 0-.08 0 0-.05l.1.2h.05l-.05-.1a3.41 3.41 0 0 0-.6-1.1l-.1-.1H30l-.05-.1-.15-.25zM30.5 4zm-.2-.5zm-.7-.7zm-.25 0h.05l.1.05v.1s.05 0 .05.1l.1.15v.15c.07 0 .1 0 .1-.05l.25.1h-.05.05c.07.07.12.1.15.1v.15h.05V4l-.4-.35s0-.08-.1-.15a.1.1 0 0 0 0-.08.1.1 0 0 1 0-.08c-.07-.07-.1-.12-.1-.15v-.1l-.15-.15zm-.25-.35h.05c.07.07.1.12.1.15l-.1-.1h-.05zm-.15-.1H29v.05h-.05zM.85 32.55zm0-.2a.09.09 0 0 0-.1-.1.2.2 0 0 0 .15 0 .2.2 0 0 1-.05.1zm.2.05v-.05.05zm.1-.25v-.05s.05 0 .05.1zm.2.35H1.2h.05v-.05H1.2h.05c.07 0 .1 0 .1.15zm0-.3H1.3zm5.1-20.75zm-.15.2zm-.15.75H6.1zM6 12.1v.1zm0 .15zm-.1.1v.05s-.02-.03 0-.05zm-.1.15zm-.1.15h.05-.1zm.05.5H5.7zm-.15-.35zm0 .1v.15zm-.25.35h.05-.05zm-.5.9h.05-.05zm0 .2zm-.5.85l.1-.1v.1H4.4zm-.35.65v.05-.1.05zm0 .1v.1zm-.25.55H3.7zm-.3.9v-.05a.06.06 0 0 1 0-.1.15.15 0 0 0 .05-.1v-.05c-.1 0-.12 0-.05-.1h.1-.1.05a.1.1 0 0 0 0-.08v-.18a.2.2 0 0 0 .05.15l.1-.1v-.1h-.1v-.3h.35v.15h.05L4 16v-.15a.06.06 0 0 0 0-.1v-.1a.14.14 0 0 1 .09 0h.01v-.05h.1v.05h.06a.2.2 0 0 0-.05.15v.25a.21.21 0 0 0 0 .15v.1c0 .07 0 .1-.05.1a.54.54 0 0 1-.15.4v.2h-.05v.1H3.6v.25h-.15v.15h-.1v.1l.05-.1h-.05zM4.2 16zm-.4 1a.21.21 0 0 1 0 .15c-.05-.05-.03-.15 0-.15zm-.15.4l-.05.1.05-.2c.07.05.07.08 0 .15zm-.35-.1v.1zm0 .45h.05v-.1zm.1.25h-.05.05zm-.2-.1h.1-.1zm-.2-.2zm-.45 2zm-.6.95zm0-.15H2h-.05zm.15.6H2a.1.1 0 0 1 0-.1v-.07c0-.07 0 0 0 0v-.23l.1-.1s.05 0 .05-.1-.05 0-.05-.1h.05c.07-.07.07-.1 0-.1h.25v-.15h.1V20v.1h-.05a.21.21 0 0 1 0 .15l-.05.15v.2l-.05.1v.1zm3-6a.21.21 0 0 0-.05.15v.1l-.05.1h.05v.1H5c-.05 0 0 0 0 .1v.05h-.05v.1H4.9v.2l-.05.05.05.1h-.1v.15h-.1v.15l-.15.15v.05L4.2 17v.1a.85.85 0 0 0-.1.25l-.15.25H3.9v.1h-.05v.1l-.15.25a.29.29 0 0 1-.1.2l-.05.1v.2a.76.76 0 0 0-.1.3l-.55 1.4-.2.7a2 2 0 0 1-.2.45v-.1h-.05.05a.29.29 0 0 1 0-.2v-.2a.77.77 0 0 1 .1-.3.17.17 0 0 0 .05-.12.17.17 0 0 1 0-.12.06.06 0 0 1 0-.1v-.1h.1l.05-.25v.19l.15-.3.05-.5.25-.7a.87.87 0 0 0 .1-.25.34.34 0 0 0 .1-.25l.35-.85h.05v-.1A.2.2 0 0 1 4 17v-.1l.2-.4v-.25l.2-.25a.21.21 0 0 0 .05-.15v-.1a.31.31 0 0 1 .05-.17l.1-.17v-.1l.35-.31a.2.2 0 0 0 .05-.1v-.05.05zm0-.15c0-.1 0-.15.05-.15zm.55-.7H5.6v-.15h.05zM6 40.45h-.1a.06.06 0 0 0 0-.1h.05a.09.09 0 0 1 .1.1zM5.95 14l.1-.2zm.2-.3H6.1h.05zm.1 26.85H6.2h.05zm0-.25H6.2h.05zm0-26.8H6.2h.05zm-.05-.3v-.05h.05zm.25 0v.1H6.4l.1-.15zm.05-.45h-.1.1zm.15-.6a.2.2 0 0 1-.05.15v.05a14.47 14.47 0 0 1-.1.1l-.15.25-.15.3c0 .07 0 .11-.05.13a.08.08 0 0 0 0 .08v.1H6v-.1h.1l-.05.05v-.05H6v.1-.1l-.1.1-.05.1v.1l-.05.1a.41.41 0 0 1-.15.25v.15c-.1 0-.15 0-.15.1v-.1h.1a.06.06 0 0 1 0-.1v-.1l-.1.19v-.1l.1-.15.1-.12a.31.31 0 0 0 0-.17s0-.08.1-.15l.2-.21V13l.1-.1v-.15h.05c.07-.07.1-.12.1-.15l.1-.2.15-.2.05-.05zm8.7 28.2h.05l-.05.05zm-8.5-27.8zm.05-.75h-.1.1zm.1-.15h-.05v-.05H7zm.45-.55zM8.8 9.25zm5-4.8a.29.29 0 0 1 0 .2l-.1-.1s0-.08.1-.15zM23.95.8H24zm.15.1V.85zm.05 0V.85.9zm.65 0V.85.9zm0-.1zm.2.2l.1-.05.05.1zm.2 0l.05-.1zm.15.55zm.1-.9h.1-.1zm0 .4a.32.32 0 0 1 .25 0 .29.29 0 0 1-.15-.05zm.35.5h-.15zm0 .25a.2.2 0 0 1-.15 0h.15zm0-1h-.05V.6h.1zm-7 17.8l-.15.2h-.05a1.29 1.29 0 0 1 .05-.4h.1v.1zm4-5.8l.2-.25.2-.25-.1.1h-.05v.1l-.1.05zm-.25.35zm.1.25h-.05.05zm1-1.35l-.05.1-.1.1v.1l-.1.1-.05.05-.15.15v.1l-.15.2s-.05.08-.15.15v.1-.1l.1-.1v-.05a1982554025900.95 1982554025900.95 0 0 1 .1-.1s0-.08.1-.15 0-.1.05-.1v-.05h.1v-.1l.15-.2h.1c.07-.07.12-.1.15-.1zm.15-.3l-.1.15v-.1l.1-.1zM4.55 16.1zm29.9 15.35zm4.1-7.35l.05-.05h-.05v.05zm-2.5 5.2v-.05H36l.05.05zm40.8 7.45zm.45-.3v-.05h-.05l.05.05zm-7-1zm8.5-.15zm-8.95-3.85v.05l.05-.05h-.05zm17.4-17.6l-.05-.05v.05h.05zM70.6 36zM90 16zm-.5.75zm-1.75 1.4h-.05l.05.05v-.05zM80.15 34zM91 29.85v.05h.1l-.1-.05zM103.15 22h-.05.05zm-6 14.15v-.05l-.05.05h.05zM89.9 19zm10.95 14.6zm-1.15 1.2zm-10.9-3v.02l.05-.02h-.05zm7.5-7zm-5.05 4.9h.05l-.05-.05v.05zm-2.4 2.05h.05l-.05-.05v.05zm12.7-8.95h.05l-.05-.05v.05zm3.4 1.3zm31.2-10.25l-.05-.05v.05h.05z"/><path class="cls-1" d="M139.95 13.1l-.15.05-.25.1a.81.81 0 0 0-.3.25v-.1l-.1.1v.1c-.07-.1-.15-.1-.25 0s-.06 0-.08 0a.22.22 0 0 0 0 .1h-.2v.1a.07.07 0 1 0-.1.1v-.2h-.15c-.07 0-.1 0-.1.15v-.1l-.1.1.05.05H138c0-.13-.08-.15-.15-.05v.05-.1h-.1a.1.1 0 0 0-.08 0h-.07c-.07 0 0 0 0 0l-.08.08v.1l.1-.05a.39.39 0 0 0-.15.05h-.05v-.05H137v.05l-.1-.05v.05-.05a3.66 3.66 0 0 1-.1.1v-.1.05l-.05-.05v.05l-.1-.1-.1.05v-.1.1-.1.1a.21.21 0 0 0-.15-.05h-.4c0-.07-.08-.07-.15 0s0-.07-.1-.1-.12 0-.15 0h-.15c-.15 0-.08-.07-.15 0s-.08-.07-.15 0 0-.1 0-.1a.77.77 0 0 0-.3-.1v-.1l.7-1q.45-.8 1.45-2.3.25-.45.85-1.35a3.81 3.81 0 0 0 .5-.85l.1-.05.2-.25.2-.15.3-.35.35-.4a.67.67 0 0 0 .17-.42.88.88 0 0 0-.08-.48.75.75 0 0 1-.15-.2l-.1-.2-.1-.2-.09-.28-.6-.8a9.51 9.51 0 0 0-1.3-1.75l-1.1-1.05-.25-.25-.25-.25a2.08 2.08 0 0 0-.65-.5l-.2-.1h-.4a1.54 1.54 0 0 0-1 .75 2.11 2.11 0 0 0-.2.45 2.14 2.14 0 0 0-.1.75.23.23 0 0 0 0 .17.23.23 0 0 0 .13.13v.1Q131.85 4.8 130.35 7l-2.65 4q-1.95 2.9-3.35 5.35a41.8 41.8 0 0 0-3 5.85v.1l-.15.2a4.15 4.15 0 0 0-.25.8 10 10 0 0 0-.4 1 .25.25 0 0 0 0 .25h-.05a.29.29 0 0 0 0 .2 1.58 1.58 0 0 0-.1.28 1 1 0 0 0 0 .27 1.36 1.36 0 0 0-.4.7v.1h-.08a.1.1 0 0 0 0 .08v.2c-.07.07-.07.1 0 .1a.21.21 0 0 0 0 .15v.15-.05l-.15.4v.2a.22.22 0 0 1 0 .1.08.08 0 0 0 0 .1v.2h-.05v-.1.25a.2.2 0 0 1 0 .15v.1a.21.21 0 0 0 0 .15v.25a.21.21 0 0 0-.07.12 2.08 2.08 0 0 0-.38.23l-.55.5-1 .8-.55.45-2 1.5a5.26 5.26 0 0 1-.85.5l-1.3.65-.5.2q-.6.2-1.8.5a2.94 2.94 0 0 1-.95.1h-.45l-.2-.3-.1-.2v-.5a2.67 2.67 0 0 1 0-.6 4.16 4.16 0 0 1 0-.75 3 3 0 0 1 .1-.5l-.05-.1a16.93 16.93 0 0 1 1.1-2.6 21.09 21.09 0 0 1 1.3-2.2 11.81 11.81 0 0 1 2.1-2.3l1-.7.15-.1.2-.2.1-.05-.02.02a.54.54 0 0 1 .4-.15.2.2 0 0 1 .15 0 .2.2 0 0 1 .15 0c.13 0 .2 0 .2.15v.25a2.76 2.76 0 0 1-.1.6 7 7 0 0 1-.55 1.15 5.68 5.68 0 0 1-.65 1.1l-.25.45-.1.1v.15c0 .15.08.2.25.2h1.05a4.23 4.23 0 0 0 1-.2 4.1 4.1 0 0 0 1.4-.75l.25-.15v-.05h.05v-.1a.88.88 0 0 0 .25-.1v-.1h.1c.07 0 .1 0 .1-.05h.1v-.1l.3-.35s0-.08.1-.15v-.2l.1-.2a.34.34 0 0 1 .1-.25v-.2c.13-.07.17-.13.1-.2v-.95h.1v-.77a.1.1 0 0 1 0-.08V22l-.1-.15v-.1a.34.34 0 0 0-.1-.25.21.21 0 0 0 0-.15.16.16 0 0 1 0-.12.17.17 0 0 0-.05-.12 2.8 2.8 0 0 0-.25-.65l-.2-.4a7.37 7.37 0 0 0-.5-.75l-.4-.45-.15-.15a.9.9 0 0 1-.22-.18 1.31 1.31 0 0 0-.33-.22h-.2l-1.1-.55h-.15a1.65 1.65 0 0 0-.5-.1h-.1l-.5-.1a1.56 1.56 0 0 1-.45-.1 1.76 1.76 0 0 1-.5 0h-.6a8.1 8.1 0 0 0-1.65.35l-.28.13-.37.17a.17.17 0 0 1-.12.05.17.17 0 0 0-.12 0l-.15.1-.4.25a9 9 0 0 0-1.5 1.15L108 20l-.5.45a14.65 14.65 0 0 0-.9 1.25l-.1.1-.15.15-.3.4-.15.2a.29.29 0 0 1-.1.2c-.07.07-.1.12-.1.15s-.08 0-.15.15a.55.55 0 0 1-.2.25v.1h-.1a.21.21 0 0 1 0 .15h-.1v.1l-.1.05v.1l-.1.15a.09.09 0 0 0-.1.1l-.05.1v.1a.09.09 0 0 0-.1.1.21.21 0 0 1 0 .15l-.05.1a.16.16 0 0 0-.1.15v.05a.15.15 0 0 1 0 .1l-.05.15-.3.7a17.07 17.07 0 0 0-.84 2.46.52.52 0 0 0-.24.06l-.23.13-.1.15s-.08 0-.15.1l-.55.55-.25.15-.1.15-.4.3-.7.4a.17.17 0 0 1-.12 0 .17.17 0 0 0-.12.05.76.76 0 0 0-.3.1.21.21 0 0 0-.15 0 .4.4 0 0 1-.3-.1v-.1a4.77 4.77 0 0 1 .25-.75q.2-.45.7-1.35l.3-.55q.2-.45.7-1.35l.25-.5c.23-.47.37-.75.4-.85a.2.2 0 0 0 .05-.15l.1-.2v.05a3.15 3.15 0 0 0-.2-.6l-.15-.2-.35-.35-.6-.35-.6-.15a4.31 4.31 0 0 0-.8-.1 2.08 2.08 0 0 0-.9.15 2 2 0 0 0-.45.2l-.2.2a.29.29 0 0 0-.2.1l-.15.2-.15.2v.1L97 24c-.07.07-.1.12-.1.15a.09.09 0 0 0-.1.1.08.08 0 0 1 0 .08.08.08 0 0 0 0 .08h-.1v.2c-.07.07-.08.12-.05.15l-.1.05h-.1.05-.4v.2l-.05.1v.05-.05.2h-.55v.05h-.15a.09.09 0 0 0-.1.1l-.1.1h-.1l-.1.1a.14.14 0 0 0-.05.1c-.07.07-.1.12-.1.15h-.1v.25h-.05l.05.1h-.1v.1h-.1V27h-.1v.05h-.15l-.1.1-.15.15-.1.1-.2.2-.1.1a1 1 0 0 0-.35.25l-.3.3-.15.2v.05l-.1.1v.15h-.1v.1h-.1l-.05.05h-.1.1-.1l-.1.1v.1a.09.09 0 0 0-.1.1H91.1v.8h-.15v.05h-.1v.05h-.05.05c-.07-.07-.12 0-.15 0v.05H90l-.15.15a.09.09 0 0 0-.1.1l-.15.1-.15.15v.05l-.15.1a701592.46 701592.46 0 0 0-.1.1c-.07 0-.1.05-.1.15h-.05v.1h-.45l-.15.1v.85l-.05.1h-.1v.1l-.05.05a701592.71 701592.71 0 0 1-.1.1l-.25.2-.05.1.05-.1A26.19 26.19 0 0 1 90.1 29a33.69 33.69 0 0 1 2.25-2.65l1.25-1.25q1.2-1.2 2.35-2.15l.47-.37.42-.33a1.48 1.48 0 0 0 .4-.35l.2-.15h.15v-.15.05-.15h.3l.1-.05h.15a.06.06 0 0 0 .1 0 .2.2 0 0 0 .15 0l.1-.05h.97a.52.52 0 0 1 .2 0 .34.34 0 0 0 .15 0h.1a.63.63 0 0 1 .15.28 1.19 1.19 0 0 1 .05.22v.05a.41.41 0 0 0 0 .4 1.15 1.15 0 0 0 .2.3l.15.15a.2.2 0 0 0 .15 0l.1.1h.15c.07 0 .08 0 0 0h.1v.1h.1a.41.41 0 0 0 .4 0h.25a.3.3 0 0 1 .2 0l.2-.15.2-.25V22h.05v-.25l.05-.05-.05-.1h.05v-.2a2.14 2.14 0 0 0 .15-.75 7.57 7.57 0 0 0-.05-1v-.2a1.65 1.65 0 0 0-.1-.4.73.73 0 0 0-.15-.45l-.15-.3a3.05 3.05 0 0 0-.35-.45l-.4-.35-.7-.45a2.23 2.23 0 0 0-.45-.25l-.3-.15-.15-.1-.6-.15c-.07-.1-.13-.12-.2 0l-.25-.15h.79a.15.15 0 0 0-.15 0 .14.14 0 0 1-.15 0 1.28 1.28 0 0 1-.4 0h-.35a.86.86 0 0 1-.35 0h-2a2.94 2.94 0 0 0-.7.1 2.79 2.79 0 0 0-.55.1c-.73.2-1.28.37-1.65.5l-.5.2-.4.15-.4.25-.15.1-.15.15a3.13 3.13 0 0 0-.45.35v.05l-.25-.2h-.05a.09.09 0 0 1-.1.1h-.15l-.15.15h-.15l-.1.1h-.1.05H90a.08.08 0 0 1 0 .08v.08h-.1v.15h-.1l.05.1h-.25v.2s-.05 0-.05.1a.15.15 0 0 0-.1.05v.1h-.05v.05h-.1v.1l-.1.05a.09.09 0 0 0-.1.1.15.15 0 0 0-.1.05.14.14 0 0 0 0 .1l-.15.2-.1.1a.21.21 0 0 0 0 .15l-.5.65q-.75.85-2.05 2.65-.95 1.45-1.95 3.25l-.42.81-.43.39-.25.25H83l-.25.2a1.37 1.37 0 0 0-.45.35.29.29 0 0 0-.2.1l-.4.3-.2.05a7.53 7.53 0 0 1-1 .65l-.6.3-.85.35H79l-.95.3a1.62 1.62 0 0 1-.4.1l-1.35.3H76l-.45.1.1-.2.15-.45.15-.45.1-.2.1-.2a3.29 3.29 0 0 1 .25-.6.21.21 0 0 1 0-.15V30l.1-.15.1-.25a.9.9 0 0 1 .1-.25l.15-.3v-.15a.29.29 0 0 1 .05-.2l.2-.45a1.55 1.55 0 0 0 .15-.35l.15-.3.75-1.65.45-.9.25-.5.3-.5a2.11 2.11 0 0 1 .25-.45l.3-.5.6-1-.3-.4 1.25-1.8v-.05l.2-.2.55-.55h.1a.2.2 0 0 0 .15 0h1.6a.3.3 0 0 1 .2 0h.45V19v.1h.2a.06.06 0 0 0 .1 0h.2a1.12 1.12 0 0 0 .35 0l.75-.15a.2.2 0 0 0 .15 0h.15s.08 0 .15-.1h.2a.21.21 0 0 1 .15 0h.2l.15-.1v.1l.05-.2.1.1.1-.1h-.1a.2.2 0 0 1 .15 0h.05c0-.07 0-.07.1 0v-.05c0 .07 0 .08.1 0s.07 0 .1 0a.06.06 0 0 0 .1 0 .1.1 0 0 1-.08 0v-.08.05h.1v-.1h.1l-.05-.1h.05v.1h.1a.06.06 0 0 1 0-.1.16.16 0 0 0 .2 0h.1a.21.21 0 0 1 0-.15v.05-.05h.1s.07 0 .1-.08a.24.24 0 0 0 .05-.12h-.1.25a.1.1 0 0 1 0-.08.1.1 0 0 0 0-.08v-.1.07s.07 0 .07-.07l.1-.1v-.2c.1 0 .15-.08.15-.15h.46a.2.2 0 0 1 .15 0v-.1h.07a.1.1 0 0 0 .08 0v-.08c0-.08 0 0 .1 0v-.1a.09.09 0 0 0 .1-.1s0-.08.1-.15l.1-.2v-.25a.59.59 0 0 0 .1-.15.4.4 0 0 0 0-.15 2.08 2.08 0 0 0 .1-.35l.05-.15V14l.15-.5v-.4a.39.39 0 0 0 .05-.15l-.1.1-.15.05-.25.1a.81.81 0 0 0-.3.25v-.1l-.1.1v.1c-.07-.1-.15-.1-.25 0s-.06 0-.08 0a.22.22 0 0 0 0 .1h-.15.13v.1a.07.07 0 0 0-.1.1v-.2h-.15c-.07 0-.1 0-.1.15v-.1l-.1.1.05.05h-.1c0-.13-.08-.15-.15-.05v.05-.1h-.1a.1.1 0 0 0-.08 0h-.07c-.07 0 0 0 0 0l-.08.08v.1l.1-.05a.39.39 0 0 0-.15.05h-.05v-.05h-.42v.05l-.1-.05v.05-.05a3.66 3.66 0 0 1-.1.1v-.1.05l-.05-.05v.05l-.1-.1-.1.05v-.1.1-.1.1a.21.21 0 0 0-.15-.05h.05c0-.07-.08-.07-.15 0s0-.07-.1-.1-.12 0-.15 0H87c-.15 0-.08-.07-.15 0s-.08-.07-.15 0 0-.1 0-.1a.77.77 0 0 0-.3-.1v-.1l.7-1q.45-.8 1.45-2.3.25-.45.85-1.35a3.81 3.81 0 0 0 .5-.85l.1-.05.2-.25.2-.15.3-.35.35-.4a.67.67 0 0 0 .17-.42.88.88 0 0 0-.08-.48.75.75 0 0 1-.15-.2l-.1-.2-.1-.2-.54-.23-.6-.8a9.51 9.51 0 0 0-1.3-1.75l-1.1-1.05-.25-.3-.25-.25A2.08 2.08 0 0 0 86.1.4l-.2-.1h-.4a1.54 1.54 0 0 0-1 .75 2.11 2.11 0 0 0-.2.45 2.14 2.14 0 0 0-.1.75.23.23 0 0 0 0 .17.23.23 0 0 0 .13.13v.1Q82.95 4.8 81.45 7l-2.65 4q-1.95 2.9-3.35 5.35a41.8 41.8 0 0 0-3 5.85v.1l-.15.2a4.15 4.15 0 0 0-.25.8 10 10 0 0 0-.4 1 .25.25 0 0 0 0 .25h-.05a.29.29 0 0 0 0 .2 1.58 1.58 0 0 0-.1.28 1 1 0 0 0 0 .27 1.36 1.36 0 0 0-.25.65v.1h-.08a.1.1 0 0 0 0 .08v.2c-.07.07-.07.1 0 .1a.21.21 0 0 0 0 .15v.15-.05l-.11.31a2.13 2.13 0 0 0-.49.54l-.7 1a19.42 19.42 0 0 1-3.2 3q-1.1.8-1.7 1.15h-.1v-.2a13.32 13.32 0 0 1 .9-2.9A27.55 27.55 0 0 1 67 27q.9-1.3 1.3-2 1.3-1.9 1.9-2.9l.2-.4.45-.5.35-.45a1.05 1.05 0 0 0 .15-.8v-.2a.89.89 0 0 0-.1-.25 1.53 1.53 0 0 0-.55-.5 6.51 6.51 0 0 0-1.7-.8 11.28 11.28 0 0 0-1.2-.2 5.51 5.51 0 0 0-.85 0 2.66 2.66 0 0 0-.6 0l-.6.15-.4.15a.55.55 0 0 0-.35.2l-.7.6a21.42 21.42 0 0 0-2.6 2.2L59.1 24q-2.15 2.05-2.6 2.4l-.6.45v.05a.2.2 0 0 0 0-.15l1.35-2.25.85-1.3q.8-1.15 1.45-2.2l.85-1.4.3-.5a1.15 1.15 0 0 0 .2-.3 1 1 0 0 0 0-.9 1.59 1.59 0 0 0-.5-.55 2.19 2.19 0 0 0-.85-.35l-1.35-.25a2.38 2.38 0 0 0-.55 0H56.4a2.66 2.66 0 0 0-1.5.6l-.2.1q-.15 0-.25.15a2.22 2.22 0 0 0-.55.7l-.65.65-.15.2-.2.2-.1.1-.45.45-.75.8q-.35.3-2.15 2.1l-.7.7-.9 1a7.19 7.19 0 0 1-2.3 1.5 5.52 5.52 0 0 1-1.75.3 3.55 3.55 0 0 1-.38 0l.13-.3v-.05l.15-.35a2 2 0 0 1 .1-.35v-.15a.29.29 0 0 0 0-.2.34.34 0 0 0 .1-.25v-.05a.77.77 0 0 0 .1-.3l.1-.3v-.1a.08.08 0 0 0 0-.1.08.08 0 0 1 0-.1l.05-.2a.4.4 0 0 0 0-.25l.1-.45v-.95l.2-1.15a4.09 4.09 0 0 0 0-1.05 6.05 6.05 0 0 0-.1-.9 3 3 0 0 1-.25-.85 2.92 2.92 0 0 0-.7-1 4.62 4.62 0 0 0-2.35-1.25.56.56 0 0 1-.25 0h-.9l-.45.1q-.45.05-1.7.25a1.52 1.52 0 0 0-.45.05h-.25a1.31 1.31 0 0 0-.35.12l-.42.1-.43.1-1.55.6-.9.4c-.1 0-.15 0-.15.1l-.1.15a8.5 8.5 0 0 0-.8.5l-1 .75s-.08 0-.15.1a3.8 3.8 0 0 0-.65.55l-.85.9a13.67 13.67 0 0 0-1.7 2.1q-.8 1.2-1.15 1.85-.6 1.3-.85 2a13.51 13.51 0 0 0-.55 1.45l-.1.2a.23.23 0 0 0 .05.25v.1a.87.87 0 0 0 0 .35l-.05.35v.35a1.78 1.78 0 0 0 0 .5v.2c0 .1-.07 0 0 .1l-.05.1v.25h.05-.05.05-.05v.2l.05.05-.05.1v.4a.69.69 0 0 1 .05.3.29.29 0 0 0 0 .2v.25a.14.14 0 0 1 0 .1l.05.05v.4a.2.2 0 0 1 0 .15l.05.1v.35a.85.85 0 0 0 .05.35l.25.65.15.4.15.2v.15l.2.2q0 .2.15.2l-.05.05.1.13a.17.17 0 0 0 .15.07v.05s.08 0 .15.1h.05a.16.16 0 0 0 .15.1h-.05a4.56 4.56 0 0 0 1 .7q.7.35.85.4a1 1 0 0 1 .3.08 1 1 0 0 0 .35.08h.05c0 .07 0 .12.15.15h.3a2.83 2.83 0 0 1 .65.1l.45.1a.7.7 0 0 1 .3 0h.55a.29.29 0 0 0 .2 0 .86.86 0 0 0 .35 0 .29.29 0 0 1 .2 0h.35l.35-.1.65-.15.7-.2.7-.35.65.32a.2.2 0 0 1 .15 0l.15-.1c.07-.07.12-.1.15-.1a2 2 0 0 1 .35-.2l.15-.1.1-.1a.09.09 0 0 0 .1-.1l.4-.3.15-.15h.05a.2.2 0 0 0 .15 0 .29.29 0 0 1 .1-.2l.15-.2.1-.1.2-.2.15-.2a1.42 1.42 0 0 0 .25-.3l.1-.1.05-.05c.07-.07.1-.12.1-.15l.3-.35a1.16 1.16 0 0 0 .2-.3l.15-.2a.29.29 0 0 0 .1-.2h.1l.1-.12a.31.31 0 0 0 0-.17c.07-.07.1-.12.1-.15l.1-.15c.2-.3.32-.47.35-.5l.25-.5a.88.88 0 0 0 .1-.25l.1-.2.1-.15v-.1l.15-.25a.1.1 0 0 1 0-.08.1.1 0 0 0 0-.08l.3-.7a2 2 0 0 0 .2-.45l.1-.15.3-.7.15-.3a1.27 1.27 0 0 0 .15-.35v.06l.1.1a1.37 1.37 0 0 0 .35.3 1.16 1.16 0 0 0 .3.2l.3.15.2.1H44l.6.2h1l.4.05h.17a.22.22 0 0 0 .17 0 .2.2 0 0 0 .15-.05.69.69 0 0 0 .3 0 1.63 1.63 0 0 0 .5-.1h.1a.31.31 0 0 0 .17 0h.13q.4-.1.7-.2l.3-.1a.55.55 0 0 0 .25 0l.2-.1.4-.2h.25a.2.2 0 0 1 .15-.05l-.05.05q-1.15 2.55-2.25 5.5L47.15 35a1.57 1.57 0 0 0-.1.45 1.26 1.26 0 0 0 .25.75 4.38 4.38 0 0 0 .8.8 4.48 4.48 0 0 0 1.7.8l.3.05h.45l.2-.05a1.27 1.27 0 0 0 .6-.25 7.43 7.43 0 0 0 1.55-1.35 24.73 24.73 0 0 0 1.6-2.2q1.9-2.8 2.9-4.15 1.3-1.7 2-2.45l.1-.1v.08a.11.11 0 0 0 0 .08l-.4 1.35c-.07.2-.14.45-.22.75a10.05 10.05 0 0 0-.23 1.05 12.07 12.07 0 0 0-.2 1.8 5.63 5.63 0 0 0 .95 3.4 5.33 5.33 0 0 0 .65.8 4.29 4.29 0 0 0 1.1.8 3.53 3.53 0 0 0 1.4.3 4.72 4.72 0 0 0 1.15-.15 9.53 9.53 0 0 0 1.05-.35 8.48 8.48 0 0 0 1.15-.6 6 6 0 0 0 .85-.65 7.07 7.07 0 0 0 .8-1 6.42 6.42 0 0 1 .9-1.3 12.81 12.81 0 0 0 1-1.65l.45-.77v.07a.15.15 0 0 1 0 .1l-.05.1.1-.05v.1c-.07 0-.1 0-.1.1l.05-.1v.15c-.1 0-.12.08-.05.15a.21.21 0 0 0 0 .15l.05-.05v.05l-.1.1v.35h.1-.1a.06.06 0 0 1 0 .1l.05.05a.32.32 0 0 0-.06.33.2.2 0 0 1 0 .12v.1h.05a.21.21 0 0 0 0 .2v.1a.75.75 0 0 0 .08.25v.3a.2.2 0 0 0 0 .15v.1a.29.29 0 0 1 .05.2h.1a.2.2 0 0 0 0 .15v.1c.07 0 .1 0 .1.05a.68.68 0 0 0 .05.3.21.21 0 0 0 0-.15v.2c-.07.07-.07.1 0 .1h.1a.27.27 0 0 0 0 .19.63.63 0 0 0 0 .1v.25h.1c0 .1 0 .15.1.15v.1h.1s0 .08.1.15l.2.15s0 .05.1.05l.15.15.35.15a.06.06 0 0 0 .1 0l.1.1.2.05.85.2h.18a.5.5 0 0 0 .22 0h.15a.19.19 0 0 0 .18 0 .36.36 0 0 0 .17-.08.26.26 0 0 0 .22 0h.17a.21.21 0 0 0 .05-.15v.1h.15s.05 0 .05-.1 0 .05.1.05v-.05h.15v.1a.2.2 0 0 1 .15 0l.15-.1a.2.2 0 0 0 .2-.1v-.1s.08 0 .15-.1l.1-.1a.06.06 0 0 1 .1 0v-.15h.1s.05 0 .05-.1l.1-.05v.05a.2.2 0 0 0 .2-.15l.1-.2v.05h.05v-.15h.3l.15-.15.05.1v-.1c0-.07.07-.08.1 0s.07 0 .1-.1h-.1l.1-.05h.89l.05.05v-.1c0-.1.06 0 .08 0h.07c0 .07 0 .07.1 0s.07 0 .1-.05h.1v-.1h.15l.05-.05v-.1c.07 0 .15 0 .25-.1l-.1.05v-.05.05l.08-.08a.2.2 0 0 0 0-.15s.05 0 .05-.1v-.07a.17.17 0 0 1 0-.12l.05.1v-.2h.3v-.12l.1-.08.05-.1v-.1a.16.16 0 0 0 .15-.1h-.05.1V34h.13a.4.4 0 0 0 .06-.09v-.05h.1l.1-.1.15-.15a.29.29 0 0 0 .1-.2.71.71 0 0 0 .3-.23c.1-.12.13-.19.1-.22l.15-.1a1.16 1.16 0 0 0 .2-.3s.05 0 .05-.1v-.1l.1-.05.16-.2-.06.45V33l.1.5a2.52 2.52 0 0 0 .4 1.15 13 13 0 0 0 .8 1.4 4.24 4.24 0 0 0 1.25 1 2.38 2.38 0 0 0 .65.3.55.55 0 0 1 .25 0h2.53a2 2 0 0 0 1.2-.35l.55-.45a3 3 0 0 0 .45-.35l.3-.3h.1a701592.21 701592.21 0 0 1 .1-.1s.08 0 .15-.1l.3-.3.15-.15.1-.1.25-.25.25-.25.2-.3a.3.3 0 0 0 .2-.2l.25-.25a3.06 3.06 0 0 1 .35-.45l.3-.35a.09.09 0 0 1 .1-.1v-.1a1.17 1.17 0 0 0 .2-.3l.2-.15v-.2l.15-.15V32l.2-.25v-.1s0-.08.1-.15h.1l.15-.2c.07-.07.1-.12.1-.15l.6-.25.15-.25.3-.3v.2a10.87 10.87 0 0 0-.15 1.8v1.55a3.47 3.47 0 0 0 .25 1.25l.1.15.2.3.15.2h.1a2 2 0 0 0 .3.2h.35v.05H96a.15.15 0 0 0 .1 0s0 .06.07.07.08 0 .08 0h.5v-.1.1-.02h.05q.1.1.1 0h.1c.07.07.1.07.1 0h.2v-.05.05-.05h.1a.34.34 0 0 0 .25-.1h.1l.1-.05h.1s.1 0 .2-.15.05 0 .05-.1l.1-.1h.05v-.05h.05v-.05h.15a.29.29 0 0 0 .15-.15l.15-.2q.1-.1.1-.15l.15-.15c.07-.07.1-.12.1-.15v.05l.15-.15v-.1h.1v-.3h.05v-.05h.05V34h.1l.1-.12.1-.12v-.12a.08.08 0 0 0 .05-.08l.1-.15v-.22h.05v-.1l.1-.1v-.05l.1-.15v-.05a.17.17 0 0 0 0-.12.17.17 0 0 1 .05-.12l.1-.2a.2.2 0 0 0 0-.15v.9a6.49 6.49 0 0 0 1.3 3.4 9.62 9.62 0 0 0 2 1.9 8.41 8.41 0 0 1 .8.5l.4.15h.2l.15.1.35.05a.87.87 0 0 0 .35 0l.45.1h.2a6.92 6.92 0 0 0 3.25-.55 8.71 8.71 0 0 0 2.45-1.35 15.56 15.56 0 0 0 1.65-1.4 22.89 22.89 0 0 0 2.42-2.86h.08v.1c-.07 0-.1 0-.1.1l.05-.1v.15c-.1 0-.12.08-.05.15a.21.21 0 0 0 0 .15l.05-.05v.05l-.1.1v.35h.1-.1a.06.06 0 0 1 0 .1l.05.05a.32.32 0 0 0-.06.33.2.2 0 0 1 0 .12v.1h.05a.21.21 0 0 0 0 .2v.1a.75.75 0 0 0 .08.25v.3a.2.2 0 0 0 0 .15v.1a.29.29 0 0 1 .05.2h.1a.2.2 0 0 0 0 .15v.1c.07 0 .1 0 .1.05a.68.68 0 0 0 .05.3.21.21 0 0 0 0-.15v.2c-.07.07-.07.1 0 .1h.1a.27.27 0 0 0 0 .19.63.63 0 0 0 0 .1v.25h.1c0 .1 0 .15.1.15v.1h.1s0 .08.1.15l.2.15s0 .05.1.05l.15.15.35.15a.06.06 0 0 0 .1 0l.1.1.2.05.85.2h.18a.5.5 0 0 0 .22 0h.15a.19.19 0 0 0 .18 0 .36.36 0 0 0 .17-.08.26.26 0 0 0 .22 0h.17a.21.21 0 0 0 .05-.15v.1h.15s.05 0 .05-.1 0 .05.1.05v-.05h.15v.1a.2.2 0 0 1 .15 0l.15-.1a.2.2 0 0 0 .2-.1v-.1s.08 0 .15-.1l.1-.1a.06.06 0 0 1 .1 0v-.15h.1s.05 0 .05-.1l.1-.05v.05a.2.2 0 0 0 .2-.15l.1-.2v.05h.05v-.15h.3l.15-.15.05.1v-.1c0-.07.07-.08.1 0s.07 0 .1-.1h-.1l.1-.05h.05-.05l.05.05v-.1c0-.1.06 0 .08 0h.07c0 .07 0 .07.1 0s.07 0 .1-.05H127v-.1h.05a70159.26 70159.26 0 0 1 .1-.1h.1l.05-.05v-.1c.07 0 .15 0 .25-.1l-.1.05v-.05.05l.08-.08a.2.2 0 0 0 0-.15s.05 0 .05-.1v-.07a.17.17 0 0 1 0-.12l.05.1v-.2h.3v-.12l.1-.08.05-.1v-.1a.16.16 0 0 0 .15-.1h-.05.1V34h.13a.4.4 0 0 0 .06-.09v-.05h.1l.1-.1.15-.15a.29.29 0 0 0 .1-.2A.71.71 0 0 0 130 33c.1-.12.13-.19.1-.22l.15-.1a1.16 1.16 0 0 0 .2-.3s.05 0 .05-.1v-.1l.1-.05.2-.25a.29.29 0 0 0 .1-.2.21.21 0 0 0 0-.15v-.1a.2.2 0 0 0 .2-.1v-.23a.08.08 0 0 0 .08 0h.08-.1.05c.07-.07.08-.12 0-.15v-.1.15l.1-.15v-.2l.1.1v-.15h.1s.05 0 .05-.1h.44a.21.21 0 0 1 .15 0v-.1l.1-.15h.1a.2.2 0 0 1 0-.15h.1v.1-.25.05c.07 0 .1 0 .1-.05v-.1l.1-.1v-.05h.1v-.2h.1l.05-.1h-.05l.05-.1h-.05.1v-.25l.1-.2v-.15l.1-.15v-.1a.29.29 0 0 0 .15-.25c.1 0 .1-.1 0-.2l-.25-.25c0-.07-.07-.08-.1-.05v.05h-.05a241774954028.25 241774954028.25 0 0 1-.1.1h-.1l-.05.1-.2.2-.4.45-.2.25-.5.45-.25.25h-.15l-.25.2a1.37 1.37 0 0 0-.45.35.29.29 0 0 0-.2.1l-.4.3-.2.05a7.53 7.53 0 0 1-1 .65l-.6.3-.85.35h-.05l-.95.3a1.62 1.62 0 0 1-.4.1l-1.35.3h-.3l-.45.1.1-.2.15-.45.15-.45.1-.2.1-.2a3.29 3.29 0 0 1 .25-.6.21.21 0 0 1 0-.15V30l.1-.15.1-.25a.9.9 0 0 1 .1-.25l.15-.3v-.15a.29.29 0 0 1 .05-.2l.2-.45a1.55 1.55 0 0 0 .15-.35l.15-.3.75-1.65.9-.95.25-.5.3-.5a2.11 2.11 0 0 1 .25-.45l.3-.5.6-1 .25-.35 1.25-1.8v-.05l.2-.2.45-.55h.1a.2.2 0 0 0 .15 0h1.6a.3.3 0 0 1 .2 0h.45V19v.1h.2a.06.06 0 0 0 .1 0h.2a1.12 1.12 0 0 0 .35 0l.75-.15a.2.2 0 0 0 .15 0h.15s.08 0 .15-.1h.2a.21.21 0 0 1 .15 0h.2l.15-.1v.1l.05-.2.1.1.1-.1h-.1a.2.2 0 0 1 .15 0h.05c0-.07 0-.07.1 0v-.05c0 .07 0 .08.1 0s.07 0 .1 0a.06.06 0 0 0 .1 0 .1.1 0 0 1-.08 0v-.08.05h.1v-.1h.1l-.05-.1h.05v.1h.1a.06.06 0 0 1 0-.1.16.16 0 0 0 .2 0h.1a.21.21 0 0 1 0-.15v.05-.05h.1s.07 0 .1-.08A.24.24 0 0 0 138 17h-.1.25a.1.1 0 0 1 0-.08.1.1 0 0 0 0-.08v-.1.07s.07 0 .07-.07l.1-.1v-.2c.1 0 .15-.08.15-.15h-.15a.2.2 0 0 1 .15 0v-.1h.07a.1.1 0 0 0 .08 0v-.08c0-.08 0 0 .1 0v-.1a.09.09 0 0 0 .1-.1s0-.08.1-.15l.1-.2v-.25a.59.59 0 0 0 .1-.15.4.4 0 0 0 0-.15 2.08 2.08 0 0 0 .1-.35l.05-.15V14l.15-.5v-.4a.39.39 0 0 0 .58-.1zM120 22zm0 .25zm-17.6.2h-.15a.29.29 0 0 0 .15 0zm-2.85-5.55h-.1zm-1.3-.35zM96 16zm-1.45.35v.05zm-3.6-2.8v.1s-.03-.02 0-.05zm-.1-.3v-.08zm-.1 0v.07zm0 1zm0 .25v-.1zm-.2-1.2v.05zm.1.35l-.05.15v-.1zm-.4-.1v.1-.1zm-.1 1.75v.05l-.05-.05zm-.15.1a.15.15 0 0 1 0 .1.14.14 0 0 1-.1 0zm-.2.25zm0 .35h-.05zm-.15-2.2v.05h-.05zm-.3 0v.05zm-1.1.1zm-.75 0l-.05.1zm-.35-.1h.1-.1zm-3.55 5zm-6 6.5zM76.4 28zm-.45.85zm0 .1zm0 .2zm-.45 1zm-.4.9h.05l-.05.1zm-30.75-8.9a1.05 1.05 0 0 1 0 .4 1.3 1.3 0 0 1 0-.4zM34.5 31.6h-.05.05zm2.7 4.55a5852898.32 5852898.32 0 0 1-.3.2.78.78 0 0 1-.2.15l-.25.15v-.05l.18-.1.13-.1.3-.15a14.48 14.48 0 0 1 .1-.1l.05-.1zm-.5-8l.05-.05v.05zm.6 7.9V36zm1.45-2.2h-.05.05zm.6-12.65v.2a.86.86 0 0 0 0 .35.41.41 0 0 0-.1.3v.05a.25.25 0 0 0 0 .25l-.05.1.05.1H39v.2a.29.29 0 0 0-.05.2V23v-.05a.2.2 0 0 1-.05.15v.25h.1l-.07.08a.1.1 0 0 1-.08 0h.05-.1a.29.29 0 0 0-.05.2h.05v.05h-.1l.1.1h-.3l-.1.2v.15h-.05a.21.21 0 0 1 .05.15h-.1.1l-.2.1v.1h-.1l.1.1q-.05-.1-.15 0v.05H38v.25c-.1.07-.13.12-.1.15h-.05v.1a.2.2 0 0 1 0 .15h-.05v.05a.22.22 0 0 1 0 .1.39.39 0 0 1-.08.1v.2c-.07 0-.08 0 0 0l-.1.2s-.05 0-.05.15l-.05.1-.1.1v.1l-.15.2-.05.15v.05l-.1.1-.1.2-.05.1a1.07 1.07 0 0 0-.2.35l-.05.1-.15.25v.15h-.05a.09.09 0 0 0-.1.1.16.16 0 0 0 0 .2l-.1.05v.1c0 .1 0 0 0 0h-.1a.14.14 0 0 1-.05.1.06.06 0 0 0 0 .1v.15l-.1-.05v.1h-.1.05-.05s0 .08-.15.15v.1h.05-.1s-.05 0-.05.1l-.1.1h-.05v.1c-.07 0-.1 0-.1.05v.1l-.15.15h.1-.1a.21.21 0 0 0 0 .15v-.05.1l-.1.1-.1.15a.18.18 0 0 0-.15.15c-.07.07-.1.12-.1.15a.14.14 0 0 0 0 .1.09.09 0 0 0-.1.1h-.1a.54.54 0 0 1-.2.25 2.86 2.86 0 0 1-.5.55.06.06 0 0 0 0 .1v.05l-.7.45a6 6 0 0 0-.75.4l-.15-.45a13 13 0 0 1-.3-1.65v-.6a8.39 8.39 0 0 1 .2-1.15 11.87 11.87 0 0 1 1-3.05 20 20 0 0 1 3.15-4.65 14.14 14.14 0 0 1 2.35-2 6.62 6.62 0 0 1 1.45-.75h.05v.8a4.15 4.15 0 0 1-.92 2.22zm.1 11.25h.05zm1.48-1.08l-.01.01zm.38-1.22v-.05zm.15-.2zm28.7 3v-.2.08a.12.12 0 0 1-.01.17zm-.2-1.7v-.08.18-.1zm.04-.15zm.06 3.5h.05v.05l-.01-.05zm.09-3.6zm.3 4.55v.1zm.1.25zm.8 1zm.05 0h-.05.05zm.5.5v.05zm.25.05zm3.67-.15zm3.83-2.9h-.05.05zm.15-.2zm.85-.8h-.05.05zm.4-.5v.05zm.1.1h-.05.05zm.35-.5zm.4-.45h-.05.05zm7.7-.8zm4.4-3.8zm5.35-4zm20.2 4.6l-.1.1zm-.15.45zm-.4.9zm0 3.7v-.2.08a.12.12 0 0 1 0 .12zm0 1.6zm.35.9v.1zm.1.25zm.8 1zm.05 0h-.05.05zm.5.5v.1zm.25.05zm12.2-9.2h.05l-.05.1zm-.35.4h.1v.05h-.1zm0 .3zm-.4.6v.1zm-.75 1.15zm-1 1.3h.05-.05zm-.35.45zm-.35.5H130v.1zm-.1-.05v.05zm-.4.45h-.05zm-.9.8v.05zm-.15.2h.05-.05zm-3.75 3v.05zm-.75-6.1V31zm.4-1zm.45-1.3zm0 .35zm0-.25l.05.1zm.4-.9zm1.15-2.65zm6-6.5zM136 14h.1zm.35.1zm.75 0zm1.1-.15V14zm.3.05v-.05zm.15 2.2zm0-.4zm.15-.15a.14.14 0 0 1-.1 0l.15-.15a.15.15 0 0 1 0 .05zm.2-.15l-.05-.05h.05zm.1-1.75v-.1zm.5-.4v.07zm-.2.1v.05zm0 .4h.1l-.05.15zm.2.8v-.1zm0-.2l.05-.1zm.1-1v-.08zm.1.4v-.08.1zm-20.5 14.9h-.05.05zm6.45 8zM138.95 16zM127.7 35.3zm-8.5.15z"/><path class="cls-1" d="M126.2 36.45v-.05h-.05l.05.05zm12.2-19.7zM119.5 36zm9.5-2zm7.65-15.85h-.05l.05.05v-.05zM132.3 30h-.05zm1-1.6v-.05l-.05.05zm0-.05l.05-.1-.05.05v.05z"/></g></g></svg>