<svg xmlns="http://www.w3.org/2000/svg" viewBox="0 0 87.25 54.45"><g data-name="Layer 2"><path d="M35.1 8.9a.09.09 0 0 1-.1.1.09.09 0 0 0-.1.1c-.07.13-.08.23 0 .3l-.05.1-.05.2v.08a.1.1 0 0 0 0 .07.15.15 0 0 0-.1.05.06.06 0 0 0 0 .1v.2a1.88 1.88 0 0 1-.45.8 2.21 2.21 0 0 1-.25.45 2.17 2.17 0 0 1-.55.7 1.43 1.43 0 0 1-.25.3l-.3.4-.35.3-.4.35a1.75 1.75 0 0 1-.35.35 1.75 1.75 0 0 0-.35.35.91.91 0 0 1-.4.3 1.44 1.44 0 0 1-.3.25 29.1 29.1 0 0 1-8.35 5.65l-.05.05h.05l.25.1a1.32 1.32 0 0 1 .3.15l.6.3.55.3a3.9 3.9 0 0 1 1.5 1q.2.2.6.7a9 9 0 0 1 1.15 1.5 5.4 5.4 0 0 1 .8 1.7 8.15 8.15 0 0 1 .1 1 3 3 0 0 1 0 .65l-.45 1.45a16.23 16.23 0 0 1-1.4 2.5 17.25 17.25 0 0 1-3.85 4l-.85.65-1.15.8a9.34 9.34 0 0 1-.9.55l-1.45.9a38.47 38.47 0 0 1-3.85 1.85 18.26 18.26 0 0 1-3.3 1 7.48 7.48 0 0 1-1.6.3 8.32 8.32 0 0 1-1.1.1l-.9.1a2.38 2.38 0 0 1-.55.05 2.37 2.37 0 0 1-.55-.05 4.25 4.25 0 0 1-1.85-.75.7.7 0 0 0-.3 0h-.3a.08.08 0 0 0-.1 0h-.18a1.89 1.89 0 0 1-.85-.2l-.42-.1c-.07-.07-.12-.1-.15-.1v-.1l-.1-.1s-.05 0-.05-.1H2a.13.13 0 0 1-.15-.15l-.05-.05a4.8 4.8 0 0 1-1.35-1l-.05-.1a2.7 2.7 0 0 1-.35-.9v-1.2c0-.13.07-.28.1-.45s.07-.32.1-.45a19.31 19.31 0 0 1 .65-2q.4-1.05 1-2.35 1.4-3 2.1-4.4t3.7-7l1-2 .2-.4a.8.8 0 0 0 .2-.3.75.75 0 0 0 .2-.35l.1-.12a1 1 0 0 0 .1-.22.1.1 0 0 0 .08 0v-.08l.1-.1a.14.14 0 0 1 0-.17.21.21 0 0 0 .07-.12s0-.08.1-.15a.4.4 0 0 0 .05-.25.08.08 0 0 0 .07 0 .4.4 0 0 1 .08-.1H10l.1-.2.05-.2v-.25l.1-.2c0-.1 0-.15.1-.15V15a.15.15 0 0 1 0-.1.29.29 0 0 1 .1-.2c0-.17 0-.25.1-.25a2 2 0 0 0 .2-.45.2.2 0 0 1 .15-.2v-.1a.87.87 0 0 1 .1-.25v-.2l.05-.1V13a.86.86 0 0 1 .1-.25c.07-.07.1-.12.1-.15v-.1a.15.15 0 0 0 0-.1l.05-.05v-.07a.1.1 0 0 0 0-.08v-.1s0-.08.1-.15v-.15a.29.29 0 0 1 .05-.2c.1-.1.13-.17.1-.2l.15-.35c.07-.07.1-.12.1-.15a.2.2 0 0 1 .15-.2l-.05-.05.1-.2a.48.48 0 0 0 .6-.45h.1a.53.53 0 0 1 .2-.45v-.1a.24.24 0 0 1 0-.12s.07-.07.1-.07h-.05.05V9.2h.1v-.1c.07-.07.1-.12.1-.15a.77.77 0 0 1 .1-.3.88.88 0 0 0 .1-.25l.1-.1v-.12a.25.25 0 0 0 0-.12l.1-.1V7.8l.1-.2.2-.4v-.05a.45.45 0 0 1 0-.2.39.39 0 0 0 .05-.15.29.29 0 0 1 .1-.2v-.2l.1-.15a.77.77 0 0 0 .1-.3l.15-.25v-.1a.14.14 0 0 0 0-.1s0-.07.1-.1v-.05a1.08 1.08 0 0 1 .2-.4l.1-.2.1-.23a.66.66 0 0 1 .15-.22v-.1a.88.88 0 0 1 .1-.25l.2-.4V3.5l.05-.15a.14.14 0 0 0 .1 0 1.16 1.16 0 0 1 .2-.3l.1-.2v-.1l.05-.1V2.4h.05l.1-.15V1.9h.05c.07-.07.1-.12.1-.15V1.7s.08 0 .15-.1a1.76 1.76 0 0 1 .6-.4.77.77 0 0 1 .3-.1h.35a1.54 1.54 0 0 1 .45 0 .48.48 0 0 1 .35.15l.25.15.45-.05v.05a.88.88 0 0 1 .95-.1.08.08 0 0 0 .1 0h.25a.29.29 0 0 1 .2 0h.3a.28.28 0 0 1 .2 0 .28.28 0 0 0 .2 0h.45l.25-.05h.55l.3-.1a1.5 1.5 0 0 0 .45 0 3.83 3.83 0 0 1 .75-.3h1.2a2 2 0 0 0 .55.05h.45a1.52 1.52 0 0 1 .45.05h.6a1.29 1.29 0 0 0 .4 0 .29.29 0 0 1 .2.1h.05l.2.05h.1a.55.55 0 0 0 .25-.05.29.29 0 0 1 .2.05h.95l.2.05a.76.76 0 0 0 .3.1 1.13 1.13 0 0 1 .35 0l.25.1a5.05 5.05 0 0 1 .8.25.46.46 0 0 1 .2 0l.2.1v.2h.1a.2.2 0 0 0 .15 0 1.13 1.13 0 0 0 .3.2l.13.1a.3.3 0 0 0 .17 0 2.92 2.92 0 0 1 .6.4l.15.2.6.6a9.34 9.34 0 0 1 .55.9l.2.45c.07 0 .07.08 0 .15h.1s0 .05-.05.05l.05.15a.7.7 0 0 1 0 .3.56.56 0 0 1 .05.25v.15a.2.2 0 0 0 .05.15L35 6.2a.47.47 0 0 1 0 .25.78.78 0 0 0 0 .2 4.76 4.76 0 0 1-.15 1.15v.13a.41.41 0 0 0 .05.18l.1-.05a.2.2 0 0 1-.05.15h.15zM1.8 40.55zM14.1 26h-.2l-.2.13-.2.13h-.45l-.35.1-.6.3-.2.1a.21.21 0 0 0-.15 0l-.1.1-.1.1a.08.08 0 0 0-.08 0 .08.08 0 0 1-.07.05h-.05l-.2.1-.25.15a1.1 1.1 0 0 1-.35.15.45.45 0 0 0-.25.25l-.25.5-1.1 2L7.65 33l-.1.2q-1 1.8-1.4 2.7H6.1a1.23 1.23 0 0 1 .3.4.09.09 0 0 0 .1.1h.35l1-.1a4.7 4.7 0 0 0 .73 0l.63-.1a8.49 8.49 0 0 0 2.65-.75q1.2-.5 3.4-1.7a32 32 0 0 0 3-2 41 41 0 0 0 3.4-3.4A5.37 5.37 0 0 0 22.4 27a6.16 6.16 0 0 0 .6-1.6 2.74 2.74 0 0 0 .1-.6 1.33 1.33 0 0 0 0-.4 1.4 1.4 0 0 0-.35-.7.09.09 0 0 0-.1-.1h-.2a1.8 1.8 0 0 0-.5 0 2.16 2.16 0 0 0-.5 0 5.23 5.23 0 0 0-1.3.3 19.68 19.68 0 0 0-2.2.75 7.63 7.63 0 0 0-.78.28 8.36 8.36 0 0 1-1 .33h-.1v.1l.1.1v.3-.1a.09.09 0 0 0-.1-.1s-.05 0-.05-.1h-.1l.1.15a.15.15 0 0 0 0 .15.15.15 0 0 1 0 .15h-.1v-.15h-.1l-.1-.08h-.22v.1-.1l-.25.05a.77.77 0 0 1-.45 0h-.5l-.2.27zm2.7-9.4l.3-.1.9-.28q.6-.17 1-.32a16.87 16.87 0 0 0 2.4-1.25q1.55-.95 3.25-2.15a33 33 0 0 0 3.85-3.2A11.45 11.45 0 0 0 30 7.75a4.45 4.45 0 0 0 .6-1 2.31 2.31 0 0 0 .2-.8.71.71 0 0 0 0-.3 1.15 1.15 0 0 0-.4-.4 2.78 2.78 0 0 0-.55-.1 4.58 4.58 0 0 0-1.1.05q-1.4.3-2.1.5a20 20 0 0 0-2.5.7l-.85.35c-.07 0-.13.07-.2.2L21.7 9l-.65 1-1.15 1.8q-2 3.2-3.05 4.75zm3-15.2zm.15 0zM34.7 9.8zm.1-.3l.05-.05zm.05 0zM29.4 32v-.4a1.54 1.54 0 0 1 .05-.45.69.69 0 0 0 0-.3.7.7 0 0 1 .05-.3.19.19 0 0 1 0-.17 1 1 0 0 0 0-.17.71.71 0 0 1 0-.3v-.1a.1.1 0 0 1 0-.08v-.08a.2.2 0 0 1 0-.15v-.15a.06.06 0 0 0 0-.1v-.1a.86.86 0 0 0 .05-.35.7.7 0 0 0 0-.3.69.69 0 0 1 .05-.3v-.7l.1-.3.1-.45.15-.6a11.37 11.37 0 0 1 .6-2 .2.2 0 0 1 0-.15q.1-.3.23-.62c.08-.22.18-.48.27-.78s.16-.37.28-.6.24-.5.37-.8l.35-.65a4.34 4.34 0 0 1 .4-.8 11.31 11.31 0 0 1 .55-1l.45-.6a4.92 4.92 0 0 1 .45-.7 1.73 1.73 0 0 1 .25-.4l.4-.6.65-.45.85-1.3.95-1.5.45-.6q.6-.85 1.9-2.55l.35-.4.45-.55.7-.8v-.05l.1-.1a.56.56 0 0 0 .1-.15.33.33 0 0 1 .15-.15l.2-.2s0-.08.1-.15v-.05l.1-.1s0-.08.1-.15c0-.07 0-.1.05-.1v-.05s.05 0 .05-.1h.2V6.9c0-.05.08-.07 0-.1h.05s.05 0 .05-.1l.1-.1h.1v-.25a.36.36 0 0 0 .07-.1l.08-.15a.09.09 0 0 0 .1-.1l.05-.05a.39.39 0 0 1 .4-.2.37.37 0 0 0 .13-.15.09.09 0 0 0 .1-.1l.3-.25.05-.1.1-.05.1-.1a.08.08 0 0 1 .05-.08.08.08 0 0 0 0-.08l.17-.17.17-.17.7-.55a.23.23 0 0 1 .25 0 .6.6 0 0 1 .35-.3l.8-.7.2-.15.15-.15c.07-.07.12-.1.15-.1V2.5c.07-.17.13-.25.2-.25V2.2h.05a.44.44 0 0 1 .35-.2.46.46 0 0 0 .18-.17c.07-.07.12-.1.15-.1a.15.15 0 0 0 .1 0l.1-.1.17-.1.18-.1.35-.25.6-.3.15-.1a.2.2 0 0 0 .15 0A1.71 1.71 0 0 0 50 .4a.17.17 0 0 1 .13-.05.17.17 0 0 0 .13 0L51.2 0a1.3 1.3 0 0 0 .4 0h.75a3.54 3.54 0 0 1 1.4.3 4.06 4.06 0 0 1 1.6 1 2 2 0 0 1 .6 1l.15.3a3.25 3.25 0 0 1 .2 1v1l-.2.85-.45 1.45a5.78 5.78 0 0 1-.45 1.2l-.3.7-.05.2-.2.45c-.07.2-.15.42-.25.65l-.35.8-.5 1.1c-.1.2-.23.49-.4.88a5.24 5.24 0 0 1-.5.92l-.45.75v.05l-.45.6-.45.65-.3.4-.85 1-.05.1-.8 1-.55.6-.2.25-.55.55-.6.65-.05.1-.05.05-.25.2-.25.25-.45.45h-.15l-.15.15H46l-.1.1-.35.3-.2.15-.2.15a.3.3 0 0 1-.2.2l-.2.2c-.07.07-.12.1-.15.1l-.2.2-.25.2a.09.09 0 0 1-.1.1l-.2.2-.35.3s-.08 0-.15.1l-.1.1h-.15v.1s-.08 0-.15.1h-.1c-.07.07-.12.1-.15.1s-.1.12-.1.15l-.25.15a.14.14 0 0 1-.1.05s-.07 0-.1.1h-.05l-.1.1h-.05.05-.12a.5.5 0 0 0-.18.13.2.2 0 0 0-.15 0h-.05l-.1.05a.21.21 0 0 1-.15 0h-.05l-.2.67-.35.15-.25.2-.2.1-.35.25-.4.15a.61.61 0 0 1-.45.15h-.05a.29.29 0 0 1-.2.1h-.3a1.6 1.6 0 0 1-.4.1l-.7.15-.35.15-.25.55-.1.35-.15.25q-.1.3-.2.53a2.45 2.45 0 0 0-.15.42c-.07.17-.18.53-.35 1.1l-.3 1.15-.15.7-.15.8a3.21 3.21 0 0 0 0 .8 1.6 1.6 0 0 0 .1.5.42.42 0 0 0 .35.25h1.05a1.9 1.9 0 0 0 .45-.2 7.71 7.71 0 0 0 .95-.45l1.15-.75.7-.45.4-.35a4.72 4.72 0 0 0 .65-.5 3 3 0 0 1 .65-.5l.55-.45 1.5-1.2q1.2-1 1.75-1.55a7 7 0 0 1 .65-.8l.15-.15.1-.2h.1a.16.16 0 0 1 .05.2v.15a.13.13 0 0 1 0 .2.2.2 0 0 1-.05.15.89.89 0 0 1-.1.4l-.1.25a3.08 3.08 0 0 1-.2.6l-.5 1.15-.28.53-.22.42-.75 1.2-.9 1.2-.15.25a5.86 5.86 0 0 0-.5.6c-.07.07-.12.1-.15.1v.1l-.25.25c0 .1-.08.15-.15.15l-.1.1-.1.15s-.08.13-.25.3l-.35.35-.15.1a1.17 1.17 0 0 1-.3.2s0 .07-.1.1a.84.84 0 0 1-.35.25l-.45.3-.35.2a.87.87 0 0 0-.25.1.29.29 0 0 0-.2 0l-.05.05h-.45a.75.75 0 0 0-.3.1h-.05a.21.21 0 0 1-.15 0h-.1a.21.21 0 0 0-.15 0 .2.2 0 0 1-.15 0h-.05l-.05.05h-.17a.11.11 0 0 0-.08 0h-.1a.21.21 0 0 1-.15 0h-.2a.5.5 0 0 1-.22 0 .48.48 0 0 0-.22.05.15.15 0 0 1-.15 0 .15.15 0 0 0-.15 0h-.96a.69.69 0 0 0-.3 0h-.25a.23.23 0 0 1-.12 0c-.05 0-.08-.07-.08-.1a.77.77 0 0 0-.3-.1l-.45-.1a1.58 1.58 0 0 1-.45-.1.17.17 0 0 0-.12-.05.17.17 0 0 1-.12 0 1.07 1.07 0 0 0-.35-.2l-.25-.15-.3-.2a.08.08 0 0 1-.08 0h-.07v.55l-.1-.1h-.1c-.1-.1-.15-.17-.15-.2a.08.08 0 0 1-.08 0 .08.08 0 0 0-.07 0l-.05-.05a.14.14 0 0 1-.1 0l-.1-.1-.05-.1h-.1C31 36 31 35.93 31 35.9s0 0-.05 0v-.1l-.1-.1v-.2h-.05v-.1a.55.55 0 0 1-.2-.2v-.05c-.07-.07-.1-.12-.1-.15a.13.13 0 0 0-.15-.15v-.1l-.1-.15-.1-.25-.1-.15A.29.29 0 0 0 30 34v-.2l-.1-.25a.21.21 0 0 1 0-.15l-.35-.4v-.15a2.08 2.08 0 0 0-.05-.5V32zm1 3.2zm.5-10.55zm.3-.85h.05zm-.05.15zm.15-.45zm0-.2v-.1zm0 .1zm.15-.35zm.15-.25zm.05-.1zm.35-.9h.05zm0 15.1zm0-15.2zm.2-.65zm.1.1zm0-.1a.09.09 0 0 0 .1-.1c.07 0 .1-.07.1-.2h-.05v.1zm.25-.4zm.1-.2zm.9-1.8h.1zm1.6 14.1h.1zM48.2 9.6l-.15.2-.5.5-.3.35-.3.35-.2.2-.2.3-.25.25-.2.2-.15.25a1.45 1.45 0 0 0-.25.3l-.3.35-.25.3-.05.1-.1.1-.25.3h-.05v.15l-.5.6-.2.3a1.48 1.48 0 0 0-.35.4l-.3.4-.3.4s-.2.25-.5.65l-.5.7-.35.5-.1.1-.15.3-.7 1-.9 1.45-.4.75-.35.55-.15.35-.25.5-.15.3-.15.3-.05.15h.05l.7-.35a.9.9 0 0 1 .4-.25l.15-.15a2.21 2.21 0 0 0 .55-.35l.55-.35.55-.45.25-.17.25-.17.8-.65.5-.45.2-.15.35-.35h.1l.4-.35.35-.3.05-.05.4-.4.65-.65.25-.25.25-.25.7-.75s0-.08.1-.15l.2-.3a1.52 1.52 0 0 0 .35-.45 3 3 0 0 0 .35-.45 3.05 3.05 0 0 0 .35-.45l.25-.35.45-.65.65-1 .1-.25.3-.55c.07-.07.1-.12.1-.15v-.1c.07-.13.16-.3.28-.5a4.5 4.5 0 0 0 .32-.7 5.81 5.81 0 0 0 .4-1 4.12 4.12 0 0 0 .2-.5A9 9 0 0 0 51.8 8a.59.59 0 0 0 0-.25l.1-.3V7a1.59 1.59 0 0 0-.1-.45v-.1h-.05a3 3 0 0 0-.8.55l-.45.45-.3.3a.55.55 0 0 0-.25.2l-.85.75-.2.2-.55.55zm-6.65 15.75zm.5 9.8zm.45-28.8zm2.35 24.2h.05zm.35-.65zm.25-.2v.1zm.25-.7zm.05-.1zm.2-.45zm.9-26V2.4zm3.2 14.85zM54.45.9V.85.9zm.45.2zm-7.05 29.5v-.25q-.1-.1 0-.1v-.2a1.76 1.76 0 0 1 0-.5v-.7a.86.86 0 0 1 .05-.35l.1-.1a.23.23 0 0 1 0-.25l.1-.2a13.61 13.61 0 0 1 .55-1.45q.25-.65.85-2 .35-.65 1.15-1.85a13.61 13.61 0 0 1 1.7-2.1l.85-.9a3.76 3.76 0 0 1 .65-.55q.1-.1.15-.1l1-.75a8.62 8.62 0 0 1 .8-.5l.1-.15q0-.1.15-.1l.9-.4 1.55-.6.42-.1.43-.1a1.31 1.31 0 0 1 .35-.12h.25a1.52 1.52 0 0 1 .45-.05q1.25-.2 1.7-.25l.45-.1h.9a.56.56 0 0 0 .25 0A4.61 4.61 0 0 1 66 17.1a2.92 2.92 0 0 1 .7 1 3 3 0 0 0 .3.9 6.07 6.07 0 0 1 .1.9A4.12 4.12 0 0 1 67 21l-.2 1.15v.7h-.05V23l-.1.45a.4.4 0 0 1 0 .25v.2a.08.08 0 0 0 0 .1.08.08 0 0 1 0 .1v.1l-.1.3a.76.76 0 0 1-.1.3v.2a.34.34 0 0 1-.1.25.29.29 0 0 1 0 .2v.05a2 2 0 0 0-.1.35l-.15.35v.05l-.15.35c-.1.23-.18.45-.25.65l-.15.3a.87.87 0 0 0-.1.25 2 2 0 0 1-.2.35 1.27 1.27 0 0 1-.15.35l-.15.3-.3.7-.1.15a2 2 0 0 1-.2.45l-.3.7a.1.1 0 0 1 0 .08.1.1 0 0 0 0 .08l-.15.25v.1l-.1.15-.1.2a.89.89 0 0 1-.1.25l-.25.5s-.15.2-.35.5l-.1.15s0 .08-.1.15a.31.31 0 0 1 0 .17l-.1.13h-.1a.29.29 0 0 1-.1.2L62 34a1.17 1.17 0 0 1-.2.3l-.15.15s0 .08-.1.15v.05l-.1.1a1.44 1.44 0 0 1-.25.3l-.15.2-.2.2-.1.1-.15.2a.29.29 0 0 0-.1.2.21.21 0 0 1-.15 0l-.15.15-.4.3h-.05a.09.09 0 0 1-.1.1l-.1.1-.15.1a1.93 1.93 0 0 0-.35.2s-.08 0-.15.1l-.15.1a.2.2 0 0 0-.15 0l-.2.1-.7.35-.7.2-.65.15-.35.1h-.35a.29.29 0 0 0-.2 0 .86.86 0 0 1-.35 0 .29.29 0 0 1-.2 0h-.55a.7.7 0 0 0-.3 0l-.45-.1a2.83 2.83 0 0 0-.65-.1h-.3c-.1 0-.15-.08-.15-.15a1 1 0 0 1-.35-.08 1 1 0 0 0-.3-.08q-.15 0-.85-.4a4.58 4.58 0 0 1-1-.7.16.16 0 0 1-.15-.1c-.07-.07-.12-.1-.15-.1v-.05a.17.17 0 0 1-.15-.07l-.1-.12v-.05q-.15 0-.15-.2l-.2-.2v-.15l-.15-.2-.15-.4h-.05L48.3 34a.86.86 0 0 1 0-.35v-.45a.2.2 0 0 0-.3-.1v-.45a.15.15 0 0 0 0-.1v-.25a.29.29 0 0 1 0-.2.7.7 0 0 0 0-.3v-.4q.1 0 0 0v-.35zm9.4.65s0-.05.1-.05V31l.1-.1v-.1h.1v-.1c.1-.07.15-.12.15-.15h.1v-.1l.1.05v-.15a.06.06 0 0 1 0-.1.14.14 0 0 0 0-.1h.15c-.07 0-.08 0 0 0s0-.1 0-.1l.1-.05a.16.16 0 0 1 .05-.2.09.09 0 0 1 .1-.1v-.15l.15-.25v-.1a1.06 1.06 0 0 1 .2-.35v-.1l.1-.2.1-.1v-.2l.15-.2v-.1l.1-.1h.05v-.25l.1-.2v-.2a.4.4 0 0 0 .08-.1.22.22 0 0 0 0-.1v-.6a.21.21 0 0 0 0-.15v-.1s0-.08.1-.15v-.25l.05-.05h-.05c.07-.07.12-.07.15 0l-.1-.1h.1v-.1l.2-.1h-.1.1a.21.21 0 0 0 0-.15h.05v-.15h.97l.1-.2h.1l-.1-.1h.1v-.4a.29.29 0 0 1 0-.2h.1a.1.1 0 0 0 .07 0l.08-.08h-.1v-.25a.2.2 0 0 0 0-.15l.05.05v-.37h.15a.29.29 0 0 1 0-.2V23h.1v-.2a.25.25 0 0 1 .05-.25v-.15a.41.41 0 0 1 .1-.3.86.86 0 0 1 0-.35v-.2a4.16 4.16 0 0 0 0-.75V20a6.62 6.62 0 0 0-1.45.75 14.16 14.16 0 0 0-2.35 2 20 20 0 0 0-3.15 4.65 11.85 11.85 0 0 0-1 3.05 8.39 8.39 0 0 0-.2 1.15v.6a13.12 13.12 0 0 0 .3 1.65l.15.45a6 6 0 0 1 .75-.4l.7-.45v-.05a.06.06 0 0 1 0-.1 2.87 2.87 0 0 0 .5-.55.54.54 0 0 0 .2-.25h.1a.09.09 0 0 1 .1-.1.15.15 0 0 1 0-.1s0-.08.1-.15a.18.18 0 0 1 .35-.15l.1-.15.1-.1v-.1.05a.21.21 0 0 1 0-.15h.1-.05.05l.15-.15zM53.6 38.1zm3.25-6.3h-.05.05zm0 .1zm.2 5.5zm.15-5.95zm0 .2zm.3-.55zm0 0zm0-.1zm.05-.15zm0 0zm.3-.5zM58 37.4zm.05-7zm.1 7zm0 0zm.15-7.4v-.1zm.15-.35zm1 6.9l-.3.15-.12.1-.17.1v.1l.25-.15a.76.76 0 0 0 .2-.15 1.16 1.16 0 0 1 .3-.2h-.05zm-.35-8.05v.05zm.45 8.05v-.05zm.15-.15zm0 0zm.35-.25zm.5-10.75zm.15-.45zm.2-.45zm.15 9.75zm.65-1.35h.1zm1.6-1.15a.1.1 0 0 0-.08 0zm.3-1.2zm0 0v.05zm0-.15h.2zm.05.45l-.05.1zM66.3 25zm.45-2.6a1.3 1.3 0 0 0 0 .4 1 1 0 0 0 0-.35zm-5.1 23.75v-.1a1 1 0 0 0 .25-.35l.1-.05.3-.35v-.18a.1.1 0 0 1 .08 0l.2-.2.75-.45a7.06 7.06 0 0 1 1.15-.55 2 2 0 0 0 .45-.2 9.81 9.81 0 0 1 1.3-.55q1.5-.6 1.9-.7L69.4 42l.55-.15a3.11 3.11 0 0 0 .6-.2l.55-.15.3-.1.4-.75.15-.28.2-.37a2 2 0 0 0 .2-.45.43.43 0 0 1 .15-.3s0-.08.15-.15l.1-.15q.6-1.1 1-1.65.55-1.1.6-1.25a11 11 0 0 0 .5-1 .94.94 0 0 1 .1-.22.73.73 0 0 1 .1-.12.21.21 0 0 1 0-.15.3.3 0 0 0-.2 0l-.4.45s-.1.15-.3.35l-.8.8-.3.25a.09.09 0 0 0-.1.1l-.7.55-.25.2a2.78 2.78 0 0 1-1.75.6h-1.1l-.4-.1a.81.81 0 0 1-.35-.1 3.67 3.67 0 0 1-1.35-1 1.89 1.89 0 0 1-.35-.5 13 13 0 0 1-.8-1.4 3.31 3.31 0 0 1-.25-.9.2.2 0 0 0-.05-.15 2.44 2.44 0 0 1 0-.55 4.65 4.65 0 0 1 0-.8l.1-.7a12.16 12.16 0 0 1 .6-1.75 14.19 14.19 0 0 1 1-1.85 35.56 35.56 0 0 1 2-3.4 24.57 24.57 0 0 1 1.85-2.4l.6-.75a4.42 4.42 0 0 0 .4-.6l.3-.3.2-.25.1-.15.5-.5v-.1h.1l.05-.1v-.1l.1-.1a.14.14 0 0 1 0-.1.15.15 0 0 1 .1-.05l.3-.16v-.05l.1-.1.75-.65.3-.25.6-.4.13-.1a1 1 0 0 1 .22-.1 16.34 16.34 0 0 1 2-.65 6.14 6.14 0 0 1 1.55-.3.34.34 0 0 0 .25-.1h1.1a1.3 1.3 0 0 0 .4 0 6.15 6.15 0 0 1 1 .1 8 8 0 0 0 1 .1l.2.1a.28.28 0 0 0 .2 0v.05a1.59 1.59 0 0 0 .45.1.17.17 0 0 0 .13 0 .18.18 0 0 1 .13 0 8.41 8.41 0 0 1 1.2.7l.3.15a1.37 1.37 0 0 0 .3.25 2.39 2.39 0 0 1 .8 1.25 2.51 2.51 0 0 1 .15.65v1.8a.43.43 0 0 1-.15.3 2.2 2.2 0 0 1-.25.45v.1l-.1.15-.3.4a.68.68 0 0 1-.5.2h-.36a1 1 0 0 1-.4-.05.84.84 0 0 1-.35 0l-.2-.15a1.1 1.1 0 0 1-.55-.65.29.29 0 0 1 0-.2v-.2a.29.29 0 0 1 0-.2.46.46 0 0 0-.25-.25 1.76 1.76 0 0 0-.55-.1 1.57 1.57 0 0 1-.45.1 2.87 2.87 0 0 1-.45.17 2.79 2.79 0 0 0-.45.17 3.36 3.36 0 0 0-.7.35l-.25.15-.35.35a.78.78 0 0 1-.2.15l-.2.1-1.15 1-1.35 1.3q-1.3 1.25-2.25 2.3a31.1 31.1 0 0 0-3.7 5l-.3.45a.2.2 0 0 1 0 .15l.2-.1a.78.78 0 0 0 .2-.15l.4-.4s.08 0 .15-.1a.29.29 0 0 1 .2-.1c0-.1.07-.18.2-.25l.3-.3.75-.6.45-.4.4-.35h.1a.24.24 0 0 1 0-.12.17.17 0 0 1 .15-.08.29.29 0 0 1 .1-.2h.1l.55-.45L76 29l.35-.3.3-.25v-.1a.09.09 0 0 0 .1-.1l.7-.65 2-2.25.6-.65a1.87 1.87 0 0 1 .6-.55l.25-.15.1-.1.2-.2.25-.15.25-.2h.2a2.44 2.44 0 0 1 1-.2 11.3 11.3 0 0 1 1.2.2l.55.3h.1a.14.14 0 0 0 .1.05 1.8 1.8 0 0 1 .7 1.4v.25a.2.2 0 0 1-.05.15 4.55 4.55 0 0 1-.2.75.55.55 0 0 0-.05.25 5.09 5.09 0 0 1-.45 1.1l-.65 1.2Q84 29.15 83 31a10.9 10.9 0 0 0-.5 1q-1 1.75-1.6 3.25l-.6 1.15v.1a.16.16 0 0 1 0 .2 16.78 16.78 0 0 1-1 1.85l-.3.5v.1l.1-.05 1.5-.85a5.28 5.28 0 0 0 .95-.65l.9-.75v-.1h.15l.25.15a.17.17 0 0 1 0 .2l-.15.35a6.45 6.45 0 0 1-.55.95 6.29 6.29 0 0 1-1 1.05l-.35.3a2.08 2.08 0 0 1-.65.45 3.13 3.13 0 0 1-.45.35h-.1l-.6.3-.2.1-.4.2-.55.3a.09.09 0 0 0-.1.1q-.7 1.2-1 1.85v.1l-.3.55-.1.2v.15l-.25.25q-1.05 1.5-2.3 3.1a3.42 3.42 0 0 0-.25.38 1.38 1.38 0 0 1-.2.28 2.2 2.2 0 0 1-.25.45l-.5.14a1.18 1.18 0 0 1-.2.3.75.75 0 0 0-.15.2s0 .08-.1.15v.1a1 1 0 0 1-.25.33 1 1 0 0 0-.25.33l-.9 1-.15.1h-.1q-.3.3-.35.3l-.1.1a3.05 3.05 0 0 1-.35.45l-.45.45a2.86 2.86 0 0 1-.85.6l-.25.15a6 6 0 0 1-1 .4l-.4.15-.55.15a4.66 4.66 0 0 1-1.15.1 4 4 0 0 1-1.15-.15l-.55-.15a1.65 1.65 0 0 1-.5-.1.77.77 0 0 1-.3-.1.17.17 0 0 0-.12-.05.17.17 0 0 1-.12 0 4.17 4.17 0 0 1-1.1-.9c-.27-.37-.42-.58-.45-.65a.86.86 0 0 0-.1-.25.44.44 0 0 0 0-.2.45.45 0 0 1 0-.2l-.05-.35a.88.88 0 0 1 0-.35.15.15 0 0 0 0-.15.29.29 0 0 1 0-.2.29.29 0 0 0 0-.2v-.1a.55.55 0 0 1 0-.28.34.34 0 0 0 0-.22.3.3 0 0 1 0-.2v-.5q.1-.1 0-.15l.05-.1a.29.29 0 0 0 0-.2.29.29 0 0 1 0-.2v-.1a.88.88 0 0 1 .1-.25.77.77 0 0 1 .1-.3v-.1h.1a.06.06 0 0 0-.1 0h.05v-.25a.09.09 0 0 1 .1-.1V47h.1v-.1a2.15 2.15 0 0 0 .25-.45.09.09 0 0 0 .1-.1zm-.85 1.45zm.8 4.4zm1.8-2.45zm1.95 1a.16.16 0 0 0 .2 0l.2-.2q1.35-1.75 2.15-2.85.95-1.4 1.6-2.55a.2.2 0 0 0-.15 0A1.57 1.57 0 0 1 69 45a4.07 4.07 0 0 0-.6.35.85.85 0 0 0-.25.1l-1 .5-.25.2-.75.45a6.18 6.18 0 0 0-1.3 1.15 7.39 7.39 0 0 0-.7 1l-.3.55-.15.35a5.33 5.33 0 0 0-.2.65.86.86 0 0 1 0 .35 1 1 0 0 0 .15.6.55.55 0 0 0 .2.35c0 .13.1.15.2 0l.55-.3.4-.3a.76.76 0 0 0 .25-.3zm-1.8-1.4zm2.8-2.95zm.3-.2h-.1.1zM78 41zm.2-.3zm.45-.15zm.1 0zm.45-.25z" fill="#c1a192" data-name="Layer 1"/></g></svg>