<svg xmlns="http://www.w3.org/2000/svg" viewBox="0 0 114.85 43.05"><defs><style>.cls-1{fill:#c1a192}</style></defs><g id="Layer_2" data-name="Layer 2"><g id="Layer_1-2" data-name="Layer 1"><path class="cls-1" d="M34 7.5l.05.05.1-.1-.1-.05-.05.1z"/><path class="cls-1" d="M40.2 15.4l3-4L45 9l.35-.5a4.86 4.86 0 0 0 .55-.8l1-1.5 1.25-1.75.8-1.3c.07-.07.12-.1.15-.1a.28.28 0 0 1 .05-.2s0-.08.1-.15l.15-.35v-.2l-.05-.1a.55.55 0 0 0-.2-.25l-.5-.3a2.81 2.81 0 0 0-1.05-.25.87.87 0 0 0-.35 0h-.6l-.28.1a1.07 1.07 0 0 1-.28.05h-.3a.86.86 0 0 1 .35-.05.69.69 0 0 1 .3.05h-.1a.23.23 0 0 0-.18 0H46a.29.29 0 0 1-.2 0h-.35l-.45.25-.5.3a1.93 1.93 0 0 0-.35.2V2.1l.25-.2-.2.1a.86.86 0 0 1-.25.1.75.75 0 0 0-.35.2.29.29 0 0 0-.1.2.18.18 0 0 0-.15.15l-.3.9a5.75 5.75 0 0 1-.7 1.5l-.5.95-.35.68q-.15.2-.8 1.4-.25.45-1.25 1.9l-5.9 8.35-5.15 7.27-3.1 4.4q-1.4 2-2.15 3l-.4.5a5.86 5.86 0 0 0-.5.6 1.75 1.75 0 0 1-.35.35s0 .05-.1.05 0-.06 0-.08a.1.1 0 0 0 0-.08l.3-.77c.1-.25.18-.48.25-.67q1.1-3.1 3-7.55l.65-1.6q.6-1.4 1.9-4.2l1.95-4q.6-1.25 1.9-3.75l.8-1.6.2-.4a.34.34 0 0 0 .25-.4v-.1l.35-.55.4-.6a.13.13 0 0 1 .1-.15v-.1c0-.1 0-.17-.05-.2a1.7 1.7 0 0 1 .2-.35l.17-.3a.29.29 0 0 1 0 .2l.05.05v-.05a12.65 12.65 0 0 0 .58-1.35 1.75 1.75 0 0 0 .05-.7.89.89 0 0 0-.1-.4 1.71 1.71 0 0 0-.4-.45 2.2 2.2 0 0 0-.3-.2L34 4.1a.29.29 0 0 0-.2-.1.1.1 0 0 1-.15 0l-.18-.1a.41.41 0 0 0-.22-.05.34.34 0 0 0-.25-.1s-.08 0-.1-.05h-.05a2.12 2.12 0 0 0-.45-.2l.1.1h-.15l.05-.05-.4-.35a2.94 2.94 0 0 0-.6-.2 4.21 4.21 0 0 1-.55-.17h-.2a.34.34 0 0 0-.25-.1 5.4 5.4 0 0 0-.65-.2h-.1a.2.2 0 0 1-.15 0l-.05-.05a3.12 3.12 0 0 0-1.05-.28.2.2 0 0 1-.15 0c-.07 0-.1 0-.1.05s-.1.08-.2 0l-.15.1-.17.1-.17.1a.09.09 0 0 0-.1.1.54.54 0 0 0-.2.25s-.08.08-.15.25a1.23 1.23 0 0 0-.15.35l-.15.25a.34.34 0 0 0-.1.25c-.1.27-.17.43-.2.5l-.3.6-.6 1.3q-.25.55-.65 1.65l-.6 1.3a7.86 7.86 0 0 1-.4.9l-.1.15q-1.15 1.7-2.5 3.55l-1.45 2Q18.55 18 16 21.55l-1.65 2.3q-2.8 4-4.25 6-1 1.55-2.25 3a3 3 0 0 0-.3.4l-.3.3-.15.1v-.15q.15-.4.65-1.85Q9.05 28.1 10.4 25a10.38 10.38 0 0 0 .6-1.3l.55-1.2q.55-1.4 1.85-4.1l2.1-4.35q.7-1.4 1.6-3.1.5-1.1.8-1.65a.93.93 0 0 1 .1-.23V9a.48.48 0 0 0 .15-.35v-.1a4.08 4.08 0 0 1 .35-.6l.5-.6a.18.18 0 0 1 .15-.15.06.06 0 0 1 0-.1.14.14 0 0 0 0-.1L19 6.9l.2-.37.15-.28v.2h.1l.45-1a2.11 2.11 0 0 0 .2-1L20 4.2a1.44 1.44 0 0 0-.45-.7l-.3-.15h-.1L19 3.2h-.1v-.1l-.23-.1a.41.41 0 0 0-.22 0h-.1l-.15-.1V3a.16.16 0 0 1-.15-.1L18 2.75l-.4-.15.05.05s-.08 0-.15-.05h.05A15.05 15.05 0 0 0 16 2v.05V2a.77.77 0 0 0-.3-.1 3.18 3.18 0 0 0-.6-.2h-.15a.2.2 0 0 1-.15-.05h-.05a3 3 0 0 0-.95-.15h-.35s-.08 0-.15.1h-.15l-.15.1a.2.2 0 0 1-.15 0l-.05.05-.2.25-.2.25v.1l-.1.15a1.16 1.16 0 0 0-.15.25A.34.34 0 0 1 12 3a.31.31 0 0 0-.08.13.32.32 0 0 1-.07.13 2 2 0 0 1-.2.55l-.25.6q-.1.15-.23.38a3.06 3.06 0 0 0-.17.51l-.7 1.6-1.5 3.3q-1.15 2.6-2.6 6-1.7 4.15-2.8 7.4t-2.2 7.2q-.45 1.65-.7 2.8-.15.6-.35 1.8l-.1 1a.29.29 0 0 1 0 .2v1.05l.1.7a5.49 5.49 0 0 0 .35 1.3.56.56 0 0 1 0 .25 2.31 2.31 0 0 0 .45.85l.15.3a1 1 0 0 0 .7.65 1.08 1.08 0 0 1 .4.2 3.11 3.11 0 0 0 .6.2 1.6 1.6 0 0 0 .45.1 1.32 1.32 0 0 0 .4 0 1.53 1.53 0 0 0 .55 0 .17.17 0 0 1 .13 0 .17.17 0 0 0 .13 0 .21.21 0 0 0 .15-.05l.3-.1a4.14 4.14 0 0 0 .9-.5 1.49 1.49 0 0 0 .4-.35l.1-.1A8.66 8.66 0 0 0 8 39.55a13.73 13.73 0 0 0 .95-1.3l2.3-3.25 4-5.55 2.15-3.15.1-.1v.15q-1.05 3.2-1.75 6-.15.7-.55 2.1a8.5 8.5 0 0 0-.3 1.85 10.92 10.92 0 0 0-.15 1.8 8 8 0 0 0 .45 2.3.76.76 0 0 0 .1.3 1.54 1.54 0 0 0 .4.85l.15.25a1.06 1.06 0 0 0 .75.75 1.61 1.61 0 0 1 .4.1 1.29 1.29 0 0 0 .6.25l.4.1.3.05h.5l.3-.05h.13a.51.51 0 0 0 .18-.12l.4-.2a5.24 5.24 0 0 0 .85-.5l.1-.1a4.23 4.23 0 0 1 .35-.3 10.24 10.24 0 0 0 1.3-1.2 17.47 17.47 0 0 0 1.1-1.45q1-1.35 1.9-2.65l1.2-1.65L29.5 31l2.1-3 1-1.5 3.7-5.6q1.6-2.45 3.9-5.5zm-6.38-8.12h-.02zm-2-4.07l-.2-.1-.1-.05zM31 2.9h.05V3H31zm-.17-.05zm-.42-.15zM19.35 5.8v.13a.24.24 0 0 0-.05.13zm-.2.55zm-3-4.3z"/><path class="cls-1" d="M19.25 6.7l.05.1.1-.15-.1-.05-.05.1zm-.35.85l-.1.15c.07 0 .1-.05.1-.15zM45 1.6zm.15-.05a.4.4 0 0 0 .25-.05s-.12-.02-.25.05zm.3-.1a.34.34 0 0 0 .25-.1.29.29 0 0 0-.25.1zM33.55 8.5h.1v-.15.05zm.15-.2h-.05.05zm.15-.25c-.07 0-.08.07-.05.1zM43 32.9zm4.15-7.35l.05-.05h-.05v.05zm-2.5 5.2v-.05h-.05l.05.05z"/><path class="cls-1" d="M51.6 28.65l.15-.3c.07-.2.15-.42.25-.65l.15-.35.15-.35a2.12 2.12 0 0 1 .1-.35.29.29 0 0 0 .05-.2.34.34 0 0 0 .1-.25.76.76 0 0 0 .1-.3l.1-.3v-.1a.08.08 0 0 0 0-.1.08.08 0 0 1 0-.1v-.2l.05-.2v-.05a.41.41 0 0 0 0-.25l.1-.45v-.25l.1.1v-.7l.2-1.15a4.07 4.07 0 0 0 .05-1 6 6 0 0 0-.1-.9 3 3 0 0 1-.25-.85 2.92 2.92 0 0 0-.7-1.05A4.61 4.61 0 0 0 49.9 17a.55.55 0 0 1-.25 0h-.9l-.45.1q-.45.05-1.7.25a1.54 1.54 0 0 0-.45 0h-.25a1.31 1.31 0 0 0-.35.13l-.42.1-.43.1-1.55.6-.9.4c-.1 0-.15 0-.15.1L42 19a8.4 8.4 0 0 0-.8.5l-1 .75s-.08 0-.15.1a3.78 3.78 0 0 0-.65.55l-.85.9a13.69 13.69 0 0 0-1.7 2.1q-.8 1.2-1.15 1.85-.6 1.3-.85 2a13.59 13.59 0 0 0-.55 1.45l-.1.2a.23.23 0 0 0 .05.25v.1a.87.87 0 0 0 0 .35l-.05.35v.35a1.78 1.78 0 0 0 0 .5v.2c0 .1-.07 0 0 .1l-.05.1v.25h.05l-.2-.05h.05L34 32v.2h.05l-.05.05h.05l-.05.1v.4a.69.69 0 0 1 .05.3.29.29 0 0 0 0 .2v.25a.14.14 0 0 1 0 .1h.05v.4a.2.2 0 0 1 0 .15l.05.1v.3a.85.85 0 0 0 .05.35l.25.65v.05l.15.4.15.2v.15l.2.2c0 .13 0 .2.15.2h-.05l.1.13a.17.17 0 0 0 .15.08v.05s.08 0 .15.1l.05.05a.16.16 0 0 0 .15.1h-.05a4.58 4.58 0 0 0 1 .7q.7.35.85.4a1 1 0 0 1 .3.07 1 1 0 0 0 .35.08h.05q0 .1.15.15h.3a2.78 2.78 0 0 1 .65.1l.45.1a.7.7 0 0 1 .3 0h.55a.29.29 0 0 0 .2 0 .87.87 0 0 0 .35 0 .29.29 0 0 1 .2 0l.25-.05H42l.35-.1.65.39.7-.2.7-.35.2-.1a.2.2 0 0 1 .15 0l.15-.1c.07-.07.12-.1.15-.1a2 2 0 0 1 .35-.2l.15-.1.1-.1a.09.09 0 0 0 .1-.1h.05l.4-.3.15-.15h.05a.21.21 0 0 0 .15 0 .29.29 0 0 1 .1-.2l.15-.2.1-.1.2-.2.15-.2a1.47 1.47 0 0 0 .25-.3l.1-.1c.07-.07.1-.12.1-.15l.3-.35a1.2 1.2 0 0 0 .2-.3l.15-.2a.29.29 0 0 0 .1-.2l.1-.05.1-.12a.31.31 0 0 0 .05-.17c.07-.07.1-.12.1-.15l.1-.15c.2-.3.32-.47.35-.5l.25-.5a.91.91 0 0 0 .1-.25v-.05l.1-.2.1-.15v-.1l.15-.25v-.06a.1.1 0 0 1 0-.07.11.11 0 0 0 0-.08l.3-.7a2 2 0 0 0 .2-.45l.1-.15L51 30l.15-.3v-.1a1.22 1.22 0 0 0 .15-.35 1.93 1.93 0 0 0 .2-.35.85.85 0 0 1 .1-.25zm1.35-5.05a1 1 0 0 1-.05.4 1.3 1.3 0 0 1 .05-.4zm-9.85 9.45H43h.05zm2.7 4.55a1.26 1.26 0 0 0-.15.1 1.16 1.16 0 0 0-.15.1.76.76 0 0 1-.2.15l-.3.15.18-.1.13-.1.3-.15h.05v-.05h.05l.05-.1v.05zm-.5-8h.05zm.6 7.9zm1.45-2.2h-.05l.05-.05zm.6-12.65v.2a.86.86 0 0 0-.05.35.41.41 0 0 0-.1.3.25.25 0 0 0-.05.25v.2h-.1v.25a.28.28 0 0 0-.05.2l-.05.05h.05-.05a.2.2 0 0 1 0 .15l-.05.1v.3h.1l-.08.08a.1.1 0 0 1-.07 0l.05.05h-.05.05-.1v.05a.29.29 0 0 0 0 .2v.05h-.1l.1.1h-.3l-.1.2V26a.21.21 0 0 1 0 .15h-.1.1l-.2.1v.1h-.1l.1.1c0-.07-.08-.07-.15 0l.05.05h-.05v.05h-.05.05v.05h-.05v.1h-.05l.05.05c-.1.07-.13.12-.1.15s0 .1-.05.1a.21.21 0 0 1 0 .15l-.05.05a.21.21 0 0 1 0 .1.4.4 0 0 1-.07.1l-.05.1v.5c-.07 0-.08 0 0 .05l-.1.2v.15h-.05v.05l-.05.1h-.05l-.1.1V29l-.15.2v.15l-.1.1-.1.2v.1a1.07 1.07 0 0 0-.2.35l-.05.1-.15.25v.15l-.05-.05v.05c0 .05 0 0 0 0a.09.09 0 0 0-.1.1.16.16 0 0 0 0 .2h-.1v.2h-.1v-.05a.14.14 0 0 1-.05.1.06.06 0 0 0 0 .1v.1h-.1v.1h-.1.05-.05s0 .08-.15.15v.4h.05-.1s-.05 0-.05.1l-.1.1h-.05v.1h-.1v.15l-.15.15h.1-.1a.2.2 0 0 0 0 .15v.1L43 33l-.1.15a.18.18 0 0 0-.15.15c-.07.07-.1.12-.1.15a.14.14 0 0 0 0 .1.09.09 0 0 0-.1.1l-.1.05a.55.55 0 0 1-.2.25 2.86 2.86 0 0 1-.5.55.06.06 0 0 0 0 .1l-.7.45a5.89 5.89 0 0 0-.75.4L40 35a12.94 12.94 0 0 1-.3-1.65v-.6a8.4 8.4 0 0 1 .2-1.15 11.87 11.87 0 0 1 1-3 20 20 0 0 1 3.2-4.7 14.08 14.08 0 0 1 2.35-2 6.55 6.55 0 0 1 1.45-.75l.05-.05v.8a4.17 4.17 0 0 1 0 .75zM48 33.9v-.05l.05.05zm1.47-1.08s.04.02.05.01zm.38-1.23h.05zm.15-.2v-.05zm15.75-7.99l-.03-.01-.02.01h.05zm-2.1 5.3h-.05v.05l.05-.05zm-3.1-12.45l.01.01v-.01h-.01zm3 12.55zm-3.2-11.75h.02v-.03l-.02.03z"/><path class="cls-1" d="M71.7 30.35l.2-.1.1-.1v-.05h.1l.1-.1.55-.45.4-.5.4-.5.1-.05v-.2a1.17 1.17 0 0 0 .2-.3 2.23 2.23 0 0 0 .35-.55l.35-.65a.87.87 0 0 0 .1-.25.29.29 0 0 0 .1-.2l.1-.2.2-.4.25-.65.1-.45.05-.3a.49.49 0 0 0-.1-.35.23.23 0 0 0-.25 0 .15.15 0 0 1-.1 0s-.07 0-.1.1l-.45.45-.35.3a3 3 0 0 1-.45.35 3.58 3.58 0 0 1-.95.55l-.3.15s0 .05-.1.05l-.25.1-.1.05v-.05l.15-.3.2-.25.3-.4.15-.2a.54.54 0 0 1 .2-.25l.55-.8.45-.55.38-.55.27-.4q.5-.75.55-.85l.2-.4a2.77 2.77 0 0 0 .4-1.1 3.4 3.4 0 0 0 0-.7 1.58 1.58 0 0 0-.2-.55 2.44 2.44 0 0 0-1.2-1.1 3.19 3.19 0 0 0-1.85-.35h-.25l-.2.05h-.2a1.25 1.25 0 0 0-.55.15l-.3.15-.55.3s-.08 0-.15.1l-.15.1-.4.35-.3.3-.2.2-.2.25v.1H69l-.5.55v.05a6.23 6.23 0 0 0-.75.85l-.35.4-.4.4-.7.75-.35.35-.25.25-.25.25-.25.25-.5.5-.45.43-.35.32-.75.75-.2.1c-.07.07-.12.1-.15.1l.1-.15a25 25 0 0 1 1.3-2.25l1-1.45a4.56 4.56 0 0 1 .5-.65 2.11 2.11 0 0 0 .4-.55 2 2 0 0 0 .2-.55 2.83 2.83 0 0 0 .1-.65 1 1 0 0 0-.2-.65v-.1a21.93 21.93 0 0 0-3.05-2l-.45-.4-.35-.3a2.82 2.82 0 0 0-.65-.25h-.25v-.05h-.08a.1.1 0 0 1-.07 0h-.2a.06.06 0 0 0-.1 0 .08.08 0 0 0-.07.05.08.08 0 0 0 0 .1.2.2 0 0 0 0 .15v.2a.7.7 0 0 0 0 .09h-.43l.05.05h-.05l.05.1h-.05a.2.2 0 0 1 0 .15h.05-.1v.1h-.1v.05h-.1v.17l-.2.4-.2.45v.25a1.1 1.1 0 0 1-.2.4l-.35.6-.45.65-.15.2v.1h-.1l-.28.45-.22.35c-.07.07-.1.12-.1.15v.1l-.25.35-.3.45-.45.84v.05h-.1l-.37.55-.27.4v.1l-.05.1-.15.25-1 1.65-.15.3a2.65 2.65 0 0 0-.17.3 2.81 2.81 0 0 1-.17.3.17.17 0 0 0 0 .13.17.17 0 0 1-.05.13l-.15.25-.2.35q-.5 1-.7 1.5v.15l-.6 1.45-.35 1L52 32.7l-.3 1.15-.1 1.05v.25l-.1.65v.1l-.1.15v.35a.2.2 0 0 0 0 .15v.15a.2.2 0 0 0 0 .15v.5l.05.1v.27l.15.2.25.25.1.1a.2.2 0 0 0 .15.05h.05-.05.1a.09.09 0 0 0 .1.1h.05v.05h.75l.1.1v-.05a.2.2 0 0 0 .15.05.29.29 0 0 0 .2 0h.6A2.83 2.83 0 0 0 55 39a1.38 1.38 0 0 0 .45-.2.52.52 0 0 0 .35-.2l.2-.2.1-.1.15-.1.25-.2a.09.09 0 0 1 .1-.1c.07-.07.1-.12.1-.15l.1-.1a.15.15 0 0 0 0-.1c.1-.1.15-.17.15-.2l.15-.2.1-.15.1-.1v-.15c.07-.07.1-.12.1-.15v-.1l.15-.15s0-.08.1-.15V36l.15-.2v-.15a.77.77 0 0 0 .15-.2l.1-.2.15-.3.05-.05s0-.08.1-.15l.1-.2.05-.1.1-.15.4-.3v-.1s0-.08.1-.15l.05-.1v-.1l.1-.15a.14.14 0 0 1 .05-.1v-.2l.1-.1a.09.09 0 0 1 .1-.1v-.15c.07-.07.1-.12.1-.15s.1-.12.1-.15l.3-.35.6-.8.45-.55.3-.35v-.1L62 30l.15-.15h.05v-.2h.05l.1-.1h.25v-.1h.1-.1.4v-.35l.3-.1h.1l.1-.05v-.1s.08 0 .08-.07h.1l.15-.1v-.18H64a.15.15 0 0 0 0-.1s.08 0 .15-.05h.1v-.1h.1l.1-.1c.07-.07.12-.1.15-.1a.14.14 0 0 0 .1-.05.14.14 0 0 0 0-.1l.1-.05a.09.09 0 0 0 .1-.1h.1v-.05h.05v-.05.05-.05h.15a.2.2 0 0 0 .15 0V28l.05.85s0 .08.1.15v.25a.89.89 0 0 1 .1.25l.1.2h.1-.1l.1.15v.05a10.88 10.88 0 0 1 .15.15v.1l.1.15.1.1.1.05v.05l.15.1v.05l.1-.05v.15a.05.05 0 1 1 .1 0v-.05.05c0 .07 0 .1.15.1h.1v.1h.1a.09.09 0 0 0 .1.1h.15v.05h.08a.08.08 0 0 0 .08 0 1.55 1.55 0 0 0 .65.2.56.56 0 0 0 .25 0h.1a3.33 3.33 0 0 0 .7 0h.1l.15-.05a.29.29 0 0 1 .2 0l.55-.2.2-.1.2-.1zm.6-.9zm-.05.15v.05-.05zm2.15-7.3zm-.65 1h.05-.05zM72 29.8zm-.3.25zm-19.92 7.3zm0 .15v.2zM53 30.6zm.15-.7v-.05.05zm1.3-2.25a.08.08 0 0 1 0-.08v-.08.08a.1.1 0 0 0 0 .08zm.15-.4zm.2-.6c0 .07 0 .08-.05 0h.05zm0 .25v-.05zm0-.1v-.05.05zm.35-.65v-.05zm0-.3zm.65-.85v.05zm-.35.55zm.5 12.8l-.45.25a.48.48 0 0 1 .17-.12h.13l.1-.1zm.75-14.9v-.05l.1.05h-.05zm.7-1.15zm0 14.2h.05zm1.05-15.95h.05l.05-.05zM59.9 32.5zm.25-.35v-.05zm.15-.2zm.65-.8v.1l.1-.1L61 31l.2-.25.1-.1zm3.7-6.65zm.3 3.05zM65 24.1zm.25-.3v.1l-.05-.05.05-.1v.05zm.3-.2v.05-.15zm.1-.1zm.1-.1h-.15v-.05h.15zm.1-.2zm1.25-1.55zm-1 1.5v-.05zm0-.1V23l.05.05zm.15 5.8h-.05.05zm0-5.95v-.05l.05.05zm.08-.05zm0-.15zm.15 0l-.05-.05h.05zm.1-.1v-.1l.07.05zm.1-.1v-.1h.05zm.2-.2v.1-.1h.1zm.1-.1h-.05l.07-.05zm.1-.1v-.05zm0-.25v-.05.05zm.1.15h.07zm.05-.1h-.05.1l.02-.05zm.2-.4h.05l.02-.05zm.1.1v-.05zm.4-.45zm.15-.2v-.05zm.35-.4v.05-.1.1zm.15-.25zm.15-.35zm.1.15V20zm.3-.4v.1-.1zm.1-.15zm.2-.25h.05s.02-.02.02-.05zm.32 11.7zm.3 0H70h.05zm.55-.2zm.1-.1v-.1.1zm.1 0l-.05-.05h.05zm0 0v-.1l.05.05zm.15-.1v-.05zm20.2-5.55l3.65-1.65 1.65-.8.3-.2a2.28 2.28 0 0 1 .55-.3l1.1-.55a1.21 1.21 0 0 0 .4-.3 1.62 1.62 0 0 0 .6-1.2 3.54 3.54 0 0 0-.35-1.6l-.15-.25a1.9 1.9 0 0 1-.2-.55 1.26 1.26 0 0 0-.3-.55 1 1 0 0 0-.7-.3 1.84 1.84 0 0 0-.7.2 3.73 3.73 0 0 1-.62.2 13 13 0 0 0-1.75.65h-.1l-.3.15a1.14 1.14 0 0 1-.3.2l-.3.15a3.21 3.21 0 0 0-.55.4l-.2.15a21.28 21.28 0 0 1-2.15 1.3 4.11 4.11 0 0 0-1 .65l-.35.25L86 23l-.6.3a.14.14 0 0 1-.1.05s-.07 0-.1.1l.1-.15q1.1-1.8 1.75-2.7.5-.7 1.15-1.65l1.45-2.15q.2-.3.47-.68l.63-.87 3-4.2 1-1.5a4 4 0 0 1 .55-.7l.45-.6a3.36 3.36 0 0 0 .55-1.15l.1-.2.6-.85v-.1l.4-.4.65-.45.3-.2a1.43 1.43 0 0 0 .45-.85V3.9a1.38 1.38 0 0 0-.35-.8 1.47 1.47 0 0 0-.3-.25 24.12 24.12 0 0 0-2.1-1.6c-.13-.1-.28-.2-.45-.3a4.44 4.44 0 0 1-.55-.4C95 .48 95 .43 95 .4a1 1 0 0 0-.65-.35V0h-.4a.2.2 0 0 1-.15.05l-.4.2V.3a2.77 2.77 0 0 0-.45.4l-.55.75v.1l-.1.17-.1.18V2a1.48 1.48 0 0 0-.4.5l-.15.25a2.22 2.22 0 0 0-.35.55l-.25.25-.25.25a1.25 1.25 0 0 0-.3.5l-.15.2q-.3.4-1.4 2.1L87.3 8.9l-.3.35q-.2.25-1.35 2.05l-5 7.65-2.15 3.55a46.41 46.41 0 0 0-2.4 4.25q-2 3.8-3 6.15c-.13.27-.28.58-.42.95l-.33.8q-.15.35-.65 1.7a14.83 14.83 0 0 0-.4 2 .14.14 0 0 0-.05.1v.8a1.3 1.3 0 0 0 .3.65v.15a.23.23 0 0 0 .15.25 2 2 0 0 0 .6.35l.25.1.35.15.3.15h.05a.43.43 0 0 0 .6-.1l.25-.25a2.21 2.21 0 0 1 .25-.45l.35-.65.35-.55.4-.45.4-.5.35-.55a11 11 0 0 0 .65-.95l.45-.6q.9-1.3 1.6-2.5l.4-.8.35-.7.3-.45A17.66 17.66 0 0 1 81 30l.35-.5.1-.1.1.15.65 1.55a22.88 22.88 0 0 0 4.5 6.9 2.65 2.65 0 0 0 1.2.85 9.52 9.52 0 0 0 1 .35 1.6 1.6 0 0 0 .45.1l.55.1h.35a.2.2 0 0 0 .15 0l.7-.25a2.19 2.19 0 0 0 .75-.55l.25-.25.1-.1.2-.2.5-.7a.2.2 0 0 1 .1-.25h.1v-.05l.6-1.35a4.58 4.58 0 0 0 .2-.75 4.16 4.16 0 0 1 .1-.75 5.56 5.56 0 0 0-.15-1.5v-.15a.2.2 0 0 0-.2-.15l-.15-.2-.1.1-.2.3a18.26 18.26 0 0 1-2.75 3l-.2.15a.14.14 0 0 1-.1 0s-.07 0-.1.1-.12.1-.15.1a.12.12 0 0 1-.2 0 .64.64 0 0 1-.3-.3.82.82 0 0 1 0-.2l-.5-1.6a31.51 31.51 0 0 1-.85-3.4l-.4-2.1V28a8 8 0 0 1-.1-1 1.3 1.3 0 0 1 0-.4l.1-.05q1.5-.55 3.5-1.5zm-2.2 9.85zM101.1 22h-.05l.05.05V22zm13.65-.9h-.05l.05.05v-.05z"/><path class="cls-1" d="M114.8 19.3a.39.39 0 0 1-.05-.25 2.74 2.74 0 0 0-1-1.45 2.37 2.37 0 0 0-1-.5l-.7-.2-.8-.15h-.45l-.45-.05h-1a8.75 8.75 0 0 0-1.4.3h-.15a6.81 6.81 0 0 0-1 .3.34.34 0 0 1-.25.1.2.2 0 0 0-.15.05l-.3.15a.18.18 0 0 0-.15.15.39.39 0 0 0-.15 0c-.07 0-.1.07-.1.1-.17.07-.25.12-.25.15l-.15.05v.1h-.1l-.2.1v.1a.09.09 0 0 1-.1.1h-.05l-.1.1v.05h-.15.05l-.05.05h-.1s0 .05-.1.05a.2.2 0 0 0-.15.05v.1l-.05-.05v.05h.08a.11.11 0 0 1 0 .08v-.05.27h-.05l.05.1h-.1v.05l-.15.1v.1c-.07-.07-.12-.05-.15 0H103v.3h-.05l.05.05h-.15a14.47 14.47 0 0 0-.1.1l-.05.1h-.1l.1.05h-.1l-.05.05h-.1v.1c-.07.07-.1.12-.1.15a.1.1 0 0 0-.08 0v.07a.66.66 0 0 0-.17.13c0 .05-.06.09 0 .13a.32.32 0 0 0-.2.3l-.1.1a.1.1 0 0 1 0 .08v.07h-.05a.05.05 0 0 0 0 .1h-.07a.1.1 0 0 0 0 .08v.15h-.15l.05.05h-.63v.2-.05.1a.06.06 0 0 0-.1 0h-.1l.05.05h-.05v.15-.05.25h-.05v.05h-.1v.08a.1.1 0 0 0 0 .07v1.09s-.05 0-.05.1v.2a.34.34 0 0 0-.1.25l-.15.5a.3.3 0 0 1 0 .2v.2h-.05v.6h.05l-.05.05v.23c0 .02 0 0 0 0v.4-.05.1a.2.2 0 0 0 0 .15l.1.05h-.05c0 .07 0 .1.05.1v.05h-.05v.1h.05-.05l.1.05v.08h-.1v.1l.15.15h-.1v.05l.1-.05c-.07.07-.1.12-.1.15v.2l.2.25.15.2a.09.09 0 0 0 .1.1c0 .1 0 .15.1.15v.05l.05.05v.05-.05.15h.05v.15h.05v.05h.1a4.86 4.86 0 0 0 .1.1v.1a1.21 1.21 0 0 1 .3.2l.1.05.1.1h.05l.15.1a1.19 1.19 0 0 1 .3.2l.2.1h.1a.08.08 0 0 1 .07.05h.08l.05.05v.1h.05l.1.1v.1l.05.15v.6a1.06 1.06 0 0 1-.3.45.09.09 0 0 1-.1.1l-.45.4a4.31 4.31 0 0 1-1.1.75 8.56 8.56 0 0 1-1 2.49l-1.25.35a4.25 4.25 0 0 1-.8.1l-.35.1h-.65a.08.08 0 0 0-.1 0h-.25a.2.2 0 0 0-.15.05.87.87 0 0 1-.25-.1.31.31 0 0 1-.2 0l-.12-.1-.15-.1a.14.14 0 0 0-.1-.05s-.07 0-.1-.1h-.25c-.07 0-.1 0-.1-.15a1.64 1.64 0 0 0-.1.4v.4q.25 1 .35 1.25v.1a.81.81 0 0 0 .1.35l.1.1a.55.55 0 0 0 .2.25.2.2 0 0 0 .05.15.09.09 0 0 0 .1.1v.05h.05v.05l.05.05.1.1.05.1a.14.14 0 0 0 .1 0v.1h.2v.05l.2.1h.1a.29.29 0 0 0 .2 0l.35.1a.76.76 0 0 1 .3.1h.45a1.54 1.54 0 0 0 .45 0h.2a.28.28 0 0 1 .2 0 .15.15 0 0 0 .15 0h.4a.69.69 0 0 1 .3 0l.45-.1a.4.4 0 0 0 .25-.05h.5l.3-.1a.29.29 0 0 0 .2-.05h.35l.5-.2a1.55 1.55 0 0 0 .55-.2l.3-.1h.1l.25-.15a.21.21 0 0 0 .15 0 .31.31 0 0 0 .17-.05l.17-.1h.15l.15-.1.2-.1.1-.1c.07 0 .1 0 .1-.05l.2-.1.1-.1.1-.1.25-.25.2-.2h.05a14.48 14.48 0 0 1 .1-.1v-.15h.05l.1-.05.15-.2.15-.2.25-.25v-.1l.4-.65a.17.17 0 0 0 0-.12.17.17 0 0 1 0-.12c.07-.07.1-.12.1-.15l.15-.35v-.15a.76.76 0 0 1 .1-.3.56.56 0 0 1 0-.25.7.7 0 0 0 0-.3v-.71a1.3 1.3 0 0 0 .05-.4V32l-.05-.45a2.14 2.14 0 0 0-.2-.65l-.3-.55a1.77 1.77 0 0 0-.5-.5l-.15-.2h-.1l-.1-.05a2.13 2.13 0 0 0-.55-.4l-.25-.25-1.2-.9-.15-.15-.4-.35v-.95l.1-.25a.2.2 0 0 1 0-.15V26H105v-.1a.09.09 0 0 0 .1-.1v-.05a.2.2 0 0 0 .05-.15c.07 0 .08 0 0 0l.1-.1a.2.2 0 0 0 0-.15l.15-.25v-.15l.05-.05v-.4h.1l.05-.1.75-.8a9.92 9.92 0 0 1 1.35-1.15 5.58 5.58 0 0 1 1.2-.75 2 2 0 0 1 .9-.25h.25l.15.2a.2.2 0 0 0 0 .15.29.29 0 0 1 0 .2.15.15 0 0 1 0 .15.14.14 0 0 0 0 .15l-.05.05v.05h.1-.05.05l-.05.05V23a.1.1 0 0 1-.08 0 1.74 1.74 0 0 1-.25.5 6.2 6.2 0 0 1-.65 1.25.76.76 0 0 0 .3.85 1.09 1.09 0 0 0 .7.2 1.75 1.75 0 0 0 .5 0l.25-.05h.15v-.05h.1l.05-.05h-.05.15v-.1h.05v-.2.05l.05-.05h-.05.15v-.05h.1l.1-.05V25a.2.2 0 0 0 .15 0h-.1.1l.05-.05q.1.1.1 0v-.05h.93v-.1l.15-.15.05-.1c.07 0 .1-.07.1-.1a.15.15 0 0 1 0-.1v-.1h.05s.08-.08.15-.25 0-.05 0-.05l.1-.1v-.35a.09.09 0 0 0 .1-.1v-.2h.1a.2.2 0 0 0 0-.15v-.45.1l.05-.15-.05-.1h.05c.07-.07 0-.1 0-.1h.15v-.05q.1-.1 0-.15h.1-.1v-.05.05-.1h.1v-.45.05-.15h.1v-.4a.1.1 0 0 1 0-.07v-.08h.05v-.3a.06.06 0 0 0 0-.1.06.06 0 0 0 0-.1v-.95l.55-.2zm-14.3 4v-.05zm2.85-3.6zm.25 11.8zm-3.2 7.85h-.1l-.45.05h-.45a.11.11 0 0 1 .13 0 .11.11 0 0 0 .13 0 .18.18 0 0 0 .15 0h.5zm.1 0zm.2 0v-.05.05zm.3-.05h-.15zm.1 0zm.55-.5zm1-.15zm.65-.65h-.05zm.2.6v-.1h.1zm.2-.1zm.1 0v-.1.1zm.3-.1zm.4-.2v-.05zm4.1-6zm-1.65 3.85zm-.25.3l.05-.1-.1.1v.05l.05-.05zm-.8 1zm-.45-.5zm-.15.1zm-.3.95l.2-.15.25-.15s.08 0 .15-.1h.06l-.26.15-.35.25h-.1l-.1.05zm7.45-12.65zm.9-1.1zm.3-.3v-.05zm.15-.3v-.05zm.1-.3zm.5-4.25zm0 .2v-.1.15zm.1 2.7zm.05-.6zm.1-.25zm-.3 1.45l-.05-.05h-.05l.05.05h.05z"/><path class="cls-1" d="M99.8 27.35h.05v.05h-.05z"/></g></g></svg>